<svg xmlns="http://www.w3.org/2000/svg" height="1200" width="1600" version="1.1" xmlns:xlink="http://www.w3.org/1999/xlink" xmlns:svgjs="http://svgjs.com/svgjs"><rect fill="#effaff" width="1600" height="1200"></rect><g><path d="M1395.67 484.97C1394.38 451.36 1391.3 416.76 1381.75 384.44 1345.76 264.93 1228.82 197.02 1111.59 178.72 1047.26 168.68 982.23 166.99 917.4 167.39 855.36 167.78 793.11 170.96 731.27 177.03 665.44 183.39 599.82 192.64 534.99 205.27 476.33 216.8 415.97 228.83 359.99 249.91 326.38 262.54 296.65 278.05 269.11 301.02 243.46 322.5 224.96 350.64 212.93 381.56 200.5 413.28 201.6 448.28 208.56 481.09 214.03 507.14 225.16 531.4 233.41 556.56 236.8 566.7 239.68 577.14 241.67 587.68 243.95 618.21 238.49 648.73 238.68 679.36 238.88 708.39 243.95 738.22 254.89 765.17 266.62 794.2 282.63 821.15 302.62 844.51 308.09 861.82 317.53 877.53 332.25 889.95 354.12 908.45 380.18 918.19 406.72 928.24 448.58 944.05 491.54 955.98 535.29 964.83 627.86 983.72 722.72 990.88 817.18 992.37 912.63 993.86 1008.78 989.88 1103.04 975.57 1150.57 968.41 1197.3 955.38 1240.16 932.91 1261.84 921.57 1285.4 906.66 1301.41 888.26 1316.72 870.57 1326.47 848.49 1324.38 824.73 1323.28 811.5 1320 798.68 1317.82 785.65 1316.92 775.51 1316.92 765.27 1317.62 755.32 1318.91 748.56 1320.6 741.9 1322.89 735.54 1333.82 713.66 1349.14 694.67 1361.57 673.89 1380.76 641.87 1389.7 607.37 1394.18 570.58 1397.36 542.14 1396.86 513.51 1395.67 484.97Z" fill="#deeff7" opacity="1" stroke-width="2" stroke="none"></path></g><g><path d="M317.08 481.37C326 481.37 333.22 474.15 333.22 465.23 333.22 456.32 326 449.09 317.08 449.09 308.17 449.09 300.95 456.32 300.95 465.23 300.95 474.15 308.17 481.37 317.08 481.37Z" fill="#78c7e0" stroke="#333333" stroke-width="2" stroke-linecap="round" stroke-linejoin="round" opacity="1"></path><path d="M1066.06 331.73C1074.97 331.73 1082.2 324.51 1082.2 315.6 1082.2 306.68 1074.97 299.46 1066.06 299.46 1057.14 299.46 1049.92 306.68 1049.92 315.6 1049.92 324.51 1057.14 331.73 1066.06 331.73Z" fill="#78c7e0" stroke="#333333" stroke-width="2" stroke-linecap="round" stroke-linejoin="round" opacity="1"></path><path d="M389.94 391.12C394.19 391.12 397.62 387.69 397.62 383.44 397.62 379.2 394.19 375.76 389.94 375.76 385.7 375.76 382.27 379.2 382.27 383.44 382.27 387.69 385.7 391.12 389.94 391.12Z" fill="#78c7e0" stroke="#333333" stroke-width="2" stroke-linecap="round" stroke-linejoin="round" opacity="1"></path><path d="M681.54 232.08C685.79 232.08 689.22 228.65 689.22 224.4 689.22 220.16 685.79 216.72 681.54 216.72 677.3 216.72 673.87 220.16 673.87 224.4 673.87 228.65 677.3 232.08 681.54 232.08Z" fill="#78c7e0" stroke="#333333" stroke-width="2" stroke-linecap="round" stroke-linejoin="round" opacity="1"></path><path d="M818.33 366.83C822.58 366.83 826.01 363.4 826.01 359.16 826.01 354.91 822.58 351.48 818.33 351.48 814.1 351.48 810.65 354.91 810.65 359.16 810.65 363.4 814.1 366.83 818.33 366.83Z" fill="#78c7e0" stroke="#333333" stroke-width="2" stroke-linecap="round" stroke-linejoin="round" opacity="1"></path><path d="M980.66 427.94C984.91 427.94 988.34 424.51 988.34 420.26 988.34 416.02 984.91 412.59 980.66 412.59 976.42 412.59 972.98 416.02 972.98 420.26 972.98 424.51 976.42 427.94 980.66 427.94Z" fill="#78c7e0" stroke="#333333" stroke-width="2" stroke-linecap="round" stroke-linejoin="round" opacity="1"></path><path d="M1175.58 614.25C1179.83 614.25 1183.26 610.81 1183.26 606.57 1183.26 602.32 1179.83 598.89 1175.58 598.89 1171.34 598.89 1167.91 602.32 1167.91 606.57 1167.91 610.81 1171.34 614.25 1175.58 614.25Z" fill="#78c7e0" stroke="#333333" stroke-width="2" stroke-linecap="round" stroke-linejoin="round" opacity="1"></path><path d="M1291.38 423.87C1295.62 423.87 1299.05 420.44 1299.05 416.19 1299.05 411.94 1295.62 408.51 1291.38 408.51 1287.13 408.51 1283.7 411.94 1283.7 416.19 1283.7 420.44 1287.13 423.87 1291.38 423.87Z" fill="#78c7e0" stroke="#333333" stroke-width="2" stroke-linecap="round" stroke-linejoin="round" opacity="1"></path></g><g><path d="M194.88 836.81H479.39" stroke="#333333" stroke-width="2" stroke-linecap="round" stroke-linejoin="round" opacity="1" fill="none"></path><path d="M495.83 836.81H685.03" stroke="#333333" stroke-width="2" stroke-linecap="round" stroke-linejoin="round" opacity="1" fill="none"></path><path d="M1130.09 881.29H1277.64C1289.95 881.29 1299.83 871.41 1299.83 859.1 1299.83 846.8 1289.95 836.91 1277.64 836.91" stroke="#333333" stroke-width="2" stroke-linecap="round" stroke-linejoin="round" opacity="1" fill="none"></path><path d="M948.46 912.25H1060.1C1077.15 912.25 1091.06 898.44 1091.06 881.29" stroke="#333333" stroke-width="2" stroke-linecap="round" stroke-linejoin="round" opacity="1" fill="none"></path><path d="M866.56 912.25H923.95" stroke="#333333" stroke-width="2" stroke-linecap="round" stroke-linejoin="round" opacity="1" fill="none"></path><path d="M1114.36 881.29H1018.15" stroke="#333333" stroke-width="2" stroke-linecap="round" stroke-linejoin="round" opacity="1" fill="none"></path><path d="M790.02 881.29H580.14" stroke="#333333" stroke-width="2" stroke-linecap="round" stroke-linejoin="round" opacity="1" fill="none"></path><path d="M561.78 881.29H535.56" stroke="#333333" stroke-width="2" stroke-linecap="round" stroke-linejoin="round" opacity="1" fill="none"></path><path d="M375.81 881.29H283.02" stroke="#333333" stroke-width="2" stroke-linecap="round" stroke-linejoin="round" opacity="1" fill="none"></path><path d="M392.95 881.29H500.26C509.04 881.29 516 888.35 516 897.02 516 905.8 508.94 912.76 500.26 912.76H446.1" stroke="#333333" stroke-width="2" stroke-linecap="round" stroke-linejoin="round" opacity="1" fill="none"></path><path d="M486.35 944.32H432.19C423.41 944.32 416.45 937.26 416.45 928.59 416.45 919.82 423.51 912.86 432.19 912.86" stroke="#333333" stroke-width="2" stroke-linecap="round" stroke-linejoin="round" opacity="1" fill="none"></path><path d="M501.78 944.32H561.78" stroke="#333333" stroke-width="2" stroke-linecap="round" stroke-linejoin="round" opacity="1" fill="none"></path><path d="M580.14 944.32H638.63" stroke="#333333" stroke-width="2" stroke-linecap="round" stroke-linejoin="round" opacity="1" fill="none"></path><path d="M701.77 836.81H1405.12" stroke="#333333" stroke-width="2" stroke-linecap="round" stroke-linejoin="round" opacity="1" fill="none"></path></g><g><path d="M1025.01 572.78H1034.8C1034.8 572.78 1034.89 572.78 1034.89 572.69V572.6L905.72 443.34C905.72 443.34 905.72 443.34 905.63 443.34H757.24C757.24 443.34 757.15 443.34 757.15 443.43V443.52L886.23 572.69C886.23 572.69 886.23 572.69 886.32 572.69H1025.01V572.78Z" fill="#46cdcf" stroke="#333333" stroke-width="2" stroke-linecap="round" stroke-linejoin="round" opacity="1"></path><path d="M1001.97 572.78L872.71 443.34C872.71 443.34 872.71 443.34 872.62 443.34 872.53 443.34 872.53 443.34 872.53 443.34L755.73 560.41C755.73 560.41 755.73 560.41 755.64 560.41H604.76C604.67 560.41 604.67 560.41 604.67 560.5V837.17C604.67 837.26 604.67 837.26 604.76 837.26H1001.88C1001.97 837.26 1001.97 837.26 1001.97 837.17V572.78Z" fill="#abedd8" stroke="#333333" stroke-width="2" stroke-linecap="round" stroke-linejoin="round" opacity="1"></path><path d="M604.67 572.78H585.37C585.37 572.78 585.28 572.78 585.28 572.69 585.28 572.6 585.28 572.6 585.28 572.6L714.45 443.34C714.45 443.34 714.45 443.34 714.54 443.34H905.63C905.63 443.34 905.72 443.34 905.72 443.43V443.52L776.54 572.69C776.54 572.69 776.54 572.69 776.46 572.69H604.67V572.78Z" fill="#46cdcf" stroke="#333333" stroke-width="2" stroke-linecap="round" stroke-linejoin="round" opacity="1"></path><path d="M816.67 642.97V618.24H928.76V837.26H816.67V671.17" stroke="#333333" stroke-width="2" stroke-linecap="round" stroke-linejoin="round" opacity="1" fill="none"></path><path d="M816.67 663.78V650.88" stroke="#333333" stroke-width="2" stroke-linecap="round" stroke-linejoin="round" opacity="1" fill="none"></path><path d="M912.03 732.55C915.03 732.55 917.46 730.12 917.46 727.12 917.46 724.13 915.03 721.7 912.03 721.7 909.03 721.7 906.61 724.13 906.61 727.12 906.61 730.12 909.03 732.55 912.03 732.55Z" fill="#46cdcf" stroke="#333333" stroke-width="2" stroke-linecap="round" stroke-linejoin="round" opacity="1"></path><path d="M699.5 709.24H639.63C639.54 709.24 639.54 709.24 639.54 709.15V648.22C639.54 631.67 652.98 618.24 669.52 618.24 686.07 618.24 699.5 631.67 699.5 648.22V709.24Z" fill="#46cdcf" stroke="#333333" stroke-width="2" stroke-linecap="round" stroke-linejoin="round" opacity="1"></path><path d="M631.27 709.24H707.87" stroke="#333333" stroke-width="2" stroke-linecap="round" stroke-linejoin="round" opacity="1" fill="none"></path><path d="M669.52 618.24V709.24" stroke="#333333" stroke-width="2" stroke-linecap="round" stroke-linejoin="round" opacity="1" fill="none"></path><path d="M679.22 663.78H639.54" stroke="#333333" stroke-width="2" stroke-linecap="round" stroke-linejoin="round" opacity="1" fill="none"></path><path d="M699.5 663.78H685.36" stroke="#333333" stroke-width="2" stroke-linecap="round" stroke-linejoin="round" opacity="1" fill="none"></path><path d="M655.56 487.29L698.35 444.5C705.2 437.65 714.45 433.82 724.15 433.82H896.29C901.53 433.82 905.72 438.09 905.72 443.25H894.06 893.97L876.63 460.6C866.13 471.09 851.89 476.97 837.04 476.97H830.99C824.23 476.97 818.71 471.45 818.71 464.69 818.71 461.75 816.31 459.44 813.46 459.44 810.53 459.44 808.21 461.84 808.21 464.69V473.94C808.21 481.77 801.9 488.09 794.07 488.09H694.34C687.67 488.09 682.33 493.51 682.33 500.1V506.68C682.33 516.29 674.51 524.12 664.9 524.12 655.29 524.12 647.46 516.29 647.46 506.68 647.55 499.47 650.4 492.45 655.56 487.29Z" fill="#ffffff" stroke="#333333" stroke-width="2" stroke-linecap="round" stroke-linejoin="round" opacity="1"></path><path d="M691.41 419.41C691.41 419.32 691.41 419.32 691.5 419.32H743.27C743.36 419.32 743.36 419.32 743.36 419.41V501.25C743.36 501.34 743.36 501.34 743.27 501.34H691.5C691.41 501.34 691.41 501.34 691.41 501.25V419.41Z" fill="#abedd8" stroke="#333333" stroke-width="2" stroke-linecap="round" stroke-linejoin="round" opacity="1"></path><path d="M697.81 543.6C693.37 543.6 689.81 540.04 689.81 535.59V532.12C689.81 527.67 693.37 524.12 697.81 524.12 702.26 524.12 705.82 527.67 705.82 532.12V535.59C705.82 540.04 702.17 543.6 697.81 543.6Z" fill="#ffffff" stroke="#333333" stroke-width="2" stroke-linecap="round" stroke-linejoin="round" opacity="1"></path><path d="M894.06 443.25H874.4" stroke="#333333" stroke-width="2" stroke-linecap="round" stroke-linejoin="round" opacity="1" fill="none"></path><path d="M866.75 443.25H862.84" stroke="#333333" stroke-width="2" stroke-linecap="round" stroke-linejoin="round" opacity="1" fill="none"></path><path d="M742.83 837.26L743.54 572.51" stroke="#333333" stroke-width="2" stroke-linecap="round" stroke-linejoin="round" opacity="1" fill="none"></path><path d="M752.97 542.35L779.21 516.11C786.69 508.64 798.7 508.64 806.17 516.11 813.64 523.58 813.64 535.59 806.17 543.06L776.46 572.78C776.46 572.78 776.46 572.78 776.46 572.87V604.8C776.46 609.25 772.81 612.9 768.36 612.9 763.91 612.9 760.26 609.25 760.26 604.8V588.17 624.64C760.26 630.87 755.28 635.85 749.06 635.85 742.83 635.85 737.85 630.87 737.85 624.64V578.92C737.85 565.13 743.27 552.05 752.97 542.35Z" fill="#ffffff" stroke="#333333" stroke-width="2" stroke-linecap="round" stroke-linejoin="round" opacity="1"></path></g></svg>