<svg xmlns="http://www.w3.org/2000/svg" height="1200" width="1600" version="1.1" xmlns:xlink="http://www.w3.org/1999/xlink" xmlns:svgjs="http://svgjs.com/svgjs"><rect fill="#effaff" width="1600" height="1200"></rect><g><path d="M848.97 802.68H783.4 783.2V802.48L848.77 613.79 848.97 613.59C848.97 613.59 849.17 613.59 849.17 613.79L914.74 802.48V802.68C914.74 802.68 914.74 802.68 914.54 802.68H869.23" fill="#abedd8" opacity="1" stroke-width="2" stroke="none"></path><path d="M848.97 802.68H783.4 783.2V802.48L848.77 613.79 848.97 613.59C848.97 613.59 849.17 613.59 849.17 613.79L914.74 802.48V802.68C914.74 802.68 914.74 802.68 914.54 802.68H869.23" stroke="#333333" stroke-width="2" stroke-linecap="round" stroke-linejoin="round" opacity="1" fill="none"></path><path d="M848.97 960.69V733.1" stroke="#333333" stroke-width="2" stroke-linecap="round" stroke-linejoin="round" opacity="1" fill="none"></path></g><g><path d="M788.5 568L796.2 590.4 828.8 685.7V685.8C828.8 685.8 828.8 685.8 828.7 685.8H680.6 680.5V685.7L754.5 469 754.6 468.9C754.6 468.9 754.7 468.9 754.7 469L771 516.7" fill="#abedd8" opacity="1" stroke-width="2" stroke="none"></path><path d="M788.5 568L796.2 590.4 828.8 685.7V685.8C828.8 685.8 828.8 685.8 828.7 685.8H680.6 680.5V685.7L754.5 469 754.6 468.9C754.6 468.9 754.7 468.9 754.7 469L771 516.7" stroke="#333333" stroke-width="2" stroke-linecap="round" stroke-linejoin="round" opacity="1" fill="none"></path><path d="M774.9 528.2L784.8 557" stroke="#333333" stroke-width="2" stroke-linecap="round" stroke-linejoin="round" opacity="1" fill="none"></path><path d="M754.6 637V622.9" stroke="#333333" stroke-width="2" stroke-linecap="round" stroke-linejoin="round" opacity="1" fill="none"></path><path d="M754.6 960.4V648.4" stroke="#333333" stroke-width="2" stroke-linecap="round" stroke-linejoin="round" opacity="1" fill="none"></path><path d="M775.5 489.5L783 509.6C786.7 519.7 788.7 530.4 788.7 541.1V571.5C788.7 580.5 781.4 587.8 772.4 587.8 763.4 587.8 756.1 580.5 756.1 571.5V518.8 530.4C756.1 536.8 750.9 542 744.5 542H729.8C723.4 542 718.2 536.8 718.2 530.4 718.2 529 718.5 527.6 719 526.3L742.3 465.5C746.6 454.3 762.5 454.4 766.7 465.6L771.4 478.3" fill="#ffffff" opacity="1" stroke-width="2" stroke="none"></path><path d="M775.5 489.5L783 509.6C786.7 519.7 788.7 530.4 788.7 541.1V571.5C788.7 580.5 781.4 587.8 772.4 587.8 763.4 587.8 756.1 580.5 756.1 571.5V518.8 530.4C756.1 536.8 750.9 542 744.5 542H729.8C723.4 542 718.2 536.8 718.2 530.4 718.2 529 718.5 527.6 719 526.3L742.3 465.5C746.6 454.3 762.5 454.4 766.7 465.6L771.4 478.3" stroke="#333333" stroke-width="2" stroke-linecap="round" stroke-linejoin="round" opacity="1" fill="none"></path></g><g><path d="M822.71 787.03C856.21 787.03 883.31 798.47 883.31 812.6 883.31 830.23 917.19 844.36 958.59 844.36H1021.44C1049.3 844.36 1071.5 853.89 1071.5 865.49H1110.27C1143.02 865.49 1169.36 876.6 1169.36 890.42V894.71C1169.36 911.22 1200.98 924.72 1240.5 924.72H1246.52C1294.32 924.72 1333.47 940.29 1333.47 960.61V961.41H1324.81L658.23 961.41V787.03H745.18" fill="#ffffff" opacity="1" stroke-width="2" stroke="none"></path><path d="M822.71 787.03C856.21 787.03 883.31 798.47 883.31 812.6 883.31 830.23 917.19 844.36 958.59 844.36H1021.44C1049.3 844.36 1071.5 853.89 1071.5 865.49H1110.27C1143.02 865.49 1169.36 876.6 1169.36 890.42V894.71C1169.36 911.22 1200.98 924.72 1240.5 924.72H1246.52C1294.32 924.72 1333.47 940.29 1333.47 960.61V961.41H1324.81L658.23 961.41V787.03H745.18" stroke="#333333" stroke-width="2" stroke-linecap="round" stroke-linejoin="round" opacity="1" fill="none"></path><path d="M774.91 884.7C774.91 857.54 722.59 835.47 658.23 835.47" stroke="#333333" stroke-width="2" stroke-linecap="round" stroke-linejoin="round" opacity="1" fill="none"></path></g><g><path d="M1142.24 402.25L1126.94 410.34 1111.53 402.28 1114.53 419.41 1102.14 431.53 1119.3 433.98 1127.02 449.55 1134.65 434 1151.84 431.47 1139.35 419.34 1142.24 402.25Z" fill="#ffffff" stroke="#333333" stroke-width="2" stroke-linecap="round" stroke-linejoin="round" opacity="1"></path><path d="M451.64 213.95L445.26 225.36 432.24 226.56 441.12 236.16 438.23 248.84 450.12 243.38 461.35 250.05 459.82 237.11 469.63 228.52 456.83 225.94 451.64 213.95Z" fill="#ffffff" stroke="#333333" stroke-width="2" stroke-linecap="round" stroke-linejoin="round" opacity="1"></path><path d="M453.34 303.24L449.21 300.7 448.08 276.87 429.85 292.25 406.83 285.94 415.83 308.06 402.7 327.96 426.49 326.24 441.43 344.85 447.17 321.75 469.46 313.3 459.04 306.82" fill="#ffffff" opacity="1" stroke-width="2" stroke="none"></path><path d="M453.34 303.24L449.21 300.7 448.08 276.87 429.85 292.25 406.83 285.94 415.83 308.06 402.7 327.96 426.49 326.24 441.43 344.85 447.17 321.75 469.46 313.3 459.04 306.82" stroke="#333333" stroke-width="2" stroke-linecap="round" stroke-linejoin="round" opacity="1" fill="none"></path></g><g><path d="M1403.81 667.57L1333.2 496.02 1262.59 667.57H1307.2L1262.59 775.89H1403.81L1359.2 667.57H1403.81Z" fill="#abedd8" stroke="#333333" stroke-width="2" stroke-linecap="round" stroke-linejoin="round" opacity="1"></path><path d="M1333.2 711.25V697.31" stroke="#333333" stroke-width="2" stroke-linecap="round" stroke-linejoin="round" opacity="1" fill="none"></path><path d="M1333.2 959.5V723.07" stroke="#333333" stroke-width="2" stroke-linecap="round" stroke-linejoin="round" opacity="1" fill="none"></path><path d="M1299.12 530.09V579.86C1299.12 585.83 1303.92 590.63 1309.9 590.63 1315.87 590.63 1320.67 585.83 1320.67 579.86V569.44 594.5C1320.67 601.17 1326.06 606.68 1332.85 606.68 1339.52 606.68 1345.03 601.29 1345.03 594.5V567.1C1345.03 565.46 1346.32 564.17 1347.95 564.17 1349.59 564.17 1350.88 565.46 1350.88 567.1V574.59C1350.88 579.16 1354.51 582.79 1359.08 582.79 1363.65 582.79 1367.28 579.16 1367.28 574.59V529.98C1367.28 511.12 1352.05 495.9 1333.2 495.9 1314.35 496.02 1299.12 511.24 1299.12 530.09Z" fill="#ffffff" stroke="#333333" stroke-width="2" stroke-linecap="round" stroke-linejoin="round" opacity="1"></path><path d="M1305.1 643.91C1301.82 643.91 1299.12 641.22 1299.12 637.94V616.86C1299.12 613.59 1301.82 610.89 1305.1 610.89 1308.37 610.89 1311.07 613.59 1311.07 616.86V637.94C1311.07 641.34 1308.37 643.91 1305.1 643.91Z" fill="#ffffff" stroke="#333333" stroke-width="2" stroke-linecap="round" stroke-linejoin="round" opacity="1"></path></g><g><path d="M1104.86 267.6L986.76 267.6C976.17 267.6 967.56 276.21 967.56 286.8 967.56 297.38 976.17 306 986.76 306H950.1C939.75 306 931.3 314.37 931.3 324.8 931.3 335.15 939.67 343.6 950.1 343.6L1090.72 343.6C1104.79 343.6 1116.16 332.22 1116.16 318.16V306.07H1176.12C1186.71 306.07 1195.32 297.46 1195.32 286.88 1195.32 276.29 1186.71 267.68 1176.12 267.68H1148" fill="#78c7e0" opacity="1" stroke-width="2" stroke="none"></path><path d="M1104.86 267.6L986.76 267.6C976.17 267.6 967.56 276.21 967.56 286.8 967.56 297.38 976.17 306 986.76 306H950.1C939.75 306 931.3 314.37 931.3 324.8 931.3 335.15 939.67 343.6 950.1 343.6L1090.72 343.6C1104.79 343.6 1116.16 332.22 1116.16 318.16V306.07H1176.12C1186.71 306.07 1195.32 297.46 1195.32 286.88 1195.32 276.29 1186.71 267.68 1176.12 267.68H1148" stroke="#333333" stroke-width="2" stroke-linecap="round" stroke-linejoin="round" opacity="1" fill="none"></path><path d="M986.76 306H1020.97" stroke="#333333" stroke-width="2" stroke-linecap="round" stroke-linejoin="round" opacity="1" fill="none"></path><path d="M1135.52 267.6H1116.16" stroke="#333333" stroke-width="2" stroke-linecap="round" stroke-linejoin="round" opacity="1" fill="none"></path><path d="M822.83 215.3L850.48 215.3H883.66 958.32C965.98 215.3 972.14 209.14 972.14 201.48 972.14 193.81 965.98 187.65 958.32 187.65H927.59C935.25 187.65 941.41 181.49 941.41 173.83 941.41 166.16 935.25 160 927.59 160H883.66 863.59L822.83 160C807.58 160 795.18 172.4 795.18 187.65 795.18 202.9 807.58 215.3 822.83 215.3Z" fill="#78c7e0" stroke="#333333" stroke-width="2" stroke-linecap="round" stroke-linejoin="round" opacity="1"></path><path d="M927.59 187.65H898.28" stroke="#333333" stroke-width="2" stroke-linecap="round" stroke-linejoin="round" opacity="1" fill="none"></path><path d="M890.3 187.65H875.6" stroke="#333333" stroke-width="2" stroke-linecap="round" stroke-linejoin="round" opacity="1" fill="none"></path></g><g><path d="M661.77 395.9C684.23 395.9 819.1 395.9 840.16 395.9 852.29 395.9 862.05 386.14 862.05 374 862.05 361.87 852.29 352.11 840.16 352.11H779.77C793.99 352.11 805.57 340.53 805.57 326.3 805.57 312.08 793.99 300.5 779.77 300.5 764.56 300.5 642.66 300.5 622.02 300.5 608.35 301.2 597.61 312.36 597.47 326.16H565.12C545.87 326.16 530.25 341.78 530.25 361.03 530.25 380.28 545.87 395.9 565.12 395.9H621.18" fill="#78c7e0" opacity="1" stroke-width="2" stroke="none"></path><path d="M661.77 395.9C684.23 395.9 819.1 395.9 840.16 395.9 852.29 395.9 862.05 386.14 862.05 374 862.05 361.87 852.29 352.11 840.16 352.11H779.77C793.99 352.11 805.57 340.53 805.57 326.3 805.57 312.08 793.99 300.5 779.77 300.5 764.56 300.5 642.66 300.5 622.02 300.5 608.35 301.2 597.61 312.36 597.47 326.16H565.12C545.87 326.16 530.25 341.78 530.25 361.03 530.25 380.28 545.87 395.9 565.12 395.9H621.18" stroke="#333333" stroke-width="2" stroke-linecap="round" stroke-linejoin="round" opacity="1" fill="none"></path><path d="M630.81 395.9H649.36" stroke="#333333" stroke-width="2" stroke-linecap="round" stroke-linejoin="round" opacity="1" fill="none"></path></g><g><path d="M191.2 891.22C202.45 891.22 211.56 882.11 211.56 870.86 211.56 859.61 202.45 850.5 191.2 850.5 179.95 850.5 170.84 859.61 170.84 870.86 170.84 882.11 179.95 891.22 191.2 891.22Z" fill="#46cdcf" stroke="#333333" stroke-width="2" opacity="1"></path><path d="M191.2 961.4V892.11" stroke="#333333" stroke-width="2" stroke-linecap="round" stroke-linejoin="round" opacity="1" fill="none"></path></g><g><path d="M689.86 961.25C689.86 961.25 689.86 961.44 689.86 961.25L222.29 961.44C222.1 961.44 222.1 961.44 222.1 961.25V841.01C222.1 708.05 326.72 600.15 456.08 600.15 585.24 600.15 690.05 707.85 690.05 841.01V961.25H689.86Z" fill="#3d84a8" stroke="#333333" stroke-width="2" stroke-linecap="round" stroke-linejoin="round" opacity="1"></path><path d="M641.17 775.41C618.34 775.41 600.08 794.41 600.08 817.71V961.25C600.08 961.44 600.08 961.44 600.27 961.44H641.17 682.25 741.6C741.79 961.44 741.79 961.44 741.79 961.25V775.61C741.79 775.41 741.79 775.41 741.6 775.41H641.17Z" fill="#3d84a8" stroke="#333333" stroke-width="2" stroke-linecap="round" stroke-linejoin="round" opacity="1"></path><path d="M741.03 775.41C718.4 775.41 699.95 794.41 699.95 817.71V961.25C699.95 961.44 699.95 961.44 700.14 961.44H781.74C781.93 961.44 781.93 961.44 781.93 961.25V817.71C782.12 794.21 763.67 775.41 741.03 775.41Z" fill="#78c7e0" stroke="#333333" stroke-width="2" stroke-linecap="round" stroke-linejoin="round" opacity="1"></path><path d="M500.02 839.05C517.14 839.05 531.03 824.76 531.03 807.13 531.03 789.51 517.14 775.21 500.02 775.21 482.9 775.21 469.01 789.51 469.01 807.13 469.01 824.76 482.9 839.05 500.02 839.05Z" fill="#ffffff" stroke="#333333" stroke-width="2" stroke-linecap="round" stroke-linejoin="round" opacity="1"></path><path d="M435.34 784.42C441.05 790.29 444.66 798.32 444.66 807.13 444.66 824.76 430.78 839.05 413.66 839.05 396.54 839.05 382.65 824.76 382.65 807.13 382.65 789.51 396.54 775.21 413.66 775.21 417.84 775.21 421.65 776 425.26 777.56" fill="#ffffff" opacity="1" stroke-width="2" stroke="none"></path><path d="M435.34 784.42C441.05 790.29 444.66 798.32 444.66 807.13 444.66 824.76 430.78 839.05 413.66 839.05 396.54 839.05 382.65 824.76 382.65 807.13 382.65 789.51 396.54 775.21 413.66 775.21 417.84 775.21 421.65 776 425.26 777.56" stroke="#333333" stroke-width="2" stroke-linecap="round" stroke-linejoin="round" opacity="1" fill="none"></path></g><g><path d="M201.93 1009.41C201.93 982.92 230.24 961.39 265.07 961.39L1299.52 961.39H1276.17C1266.54 961.39 1258.85 955.48 1258.85 948.22 1258.85 940.97 1266.64 935.06 1276.17 935.06H1320.35C1364.81 935.06 1400.81 962.43 1400.81 996.24 1400.81 1030.05 1364.81 1057.43 1320.35 1057.43L265.07 1057.43C230.14 1057.43 201.93 1035.9 201.93 1009.41Z" fill="#ffffff" opacity="1" stroke-width="2" stroke="none"></path><path d="M201.93 961.39L1299.52 961.39H1276.17C1266.54 961.39 1258.85 955.48 1258.85 948.22 1258.85 940.97 1266.64 935.06 1276.17 935.06H1400.81" stroke="#333333" stroke-width="2" stroke-linecap="round" stroke-linejoin="round" opacity="1" fill="none"></path><path d="M1400.81 995.5H1372.01" stroke="#333333" stroke-width="2" stroke-linecap="round" stroke-linejoin="round" opacity="1" fill="none"></path><path d="M1337.66 1032.35H1301.28" stroke="#333333" stroke-width="2" stroke-linecap="round" stroke-linejoin="round" opacity="1" fill="none"></path><path d="M1362.38 1032.35H1346.32" stroke="#333333" stroke-width="2" stroke-linecap="round" stroke-linejoin="round" opacity="1" fill="none"></path></g><g><path d="M266.69 450.17V468.31" stroke="#333333" stroke-width="2" stroke-linecap="round" stroke-linejoin="round" opacity="1" fill="none"></path><path d="M274.37 454.3L259.09 464.09" stroke="#333333" stroke-width="2" stroke-linecap="round" stroke-linejoin="round" opacity="1" fill="none"></path><path d="M259.09 454.3L274.37 464.09" stroke="#333333" stroke-width="2" stroke-linecap="round" stroke-linejoin="round" opacity="1" fill="none"></path><path d="M490.81 576.24V594.38" stroke="#333333" stroke-width="2" stroke-linecap="round" stroke-linejoin="round" opacity="1" fill="none"></path><path d="M498.41 580.37L483.13 590.16" stroke="#333333" stroke-width="2" stroke-linecap="round" stroke-linejoin="round" opacity="1" fill="none"></path><path d="M483.13 580.37L498.41 590.16" stroke="#333333" stroke-width="2" stroke-linecap="round" stroke-linejoin="round" opacity="1" fill="none"></path><path d="M714.43 473.79V492.02" stroke="#333333" stroke-width="2" stroke-linecap="round" stroke-linejoin="round" opacity="1" fill="none"></path><path d="M722.02 478.01L706.75 487.8" stroke="#333333" stroke-width="2" stroke-linecap="round" stroke-linejoin="round" opacity="1" fill="none"></path><path d="M706.75 478.01L722.02 487.8" stroke="#333333" stroke-width="2" stroke-linecap="round" stroke-linejoin="round" opacity="1" fill="none"></path><path d="M837.97 388.65V406.79" stroke="#333333" stroke-width="2" stroke-linecap="round" stroke-linejoin="round" opacity="1" fill="none"></path><path d="M845.56 392.87L830.37 402.66" stroke="#333333" stroke-width="2" stroke-linecap="round" stroke-linejoin="round" opacity="1" fill="none"></path><path d="M830.37 392.87L845.56 402.66" stroke="#333333" stroke-width="2" stroke-linecap="round" stroke-linejoin="round" opacity="1" fill="none"></path><path d="M1001.5 511.43V529.57" stroke="#333333" stroke-width="2" stroke-linecap="round" stroke-linejoin="round" opacity="1" fill="none"></path><path d="M1009.18 515.65L993.91 525.44" stroke="#333333" stroke-width="2" stroke-linecap="round" stroke-linejoin="round" opacity="1" fill="none"></path><path d="M993.91 515.65L1009.18 525.44" stroke="#333333" stroke-width="2" stroke-linecap="round" stroke-linejoin="round" opacity="1" fill="none"></path><path d="M682.45 707.71V725.85" stroke="#333333" stroke-width="2" stroke-linecap="round" stroke-linejoin="round" opacity="1" fill="none"></path><path d="M690.04 711.93L674.77 721.71" stroke="#333333" stroke-width="2" stroke-linecap="round" stroke-linejoin="round" opacity="1" fill="none"></path><path d="M674.77 711.93L690.04 721.71" stroke="#333333" stroke-width="2" stroke-linecap="round" stroke-linejoin="round" opacity="1" fill="none"></path><path d="M1285.71 494.81V512.95" stroke="#333333" stroke-width="2" stroke-linecap="round" stroke-linejoin="round" opacity="1" fill="none"></path><path d="M1293.31 498.94L1278.03 508.73" stroke="#333333" stroke-width="2" stroke-linecap="round" stroke-linejoin="round" opacity="1" fill="none"></path><path d="M1278.03 498.94L1293.31 508.73" stroke="#333333" stroke-width="2" stroke-linecap="round" stroke-linejoin="round" opacity="1" fill="none"></path></g><g><path d="M1088.49 857.34C1088.49 857.22 1088.61 857.22 1088.49 857.34L1114.7 848.21 1181.47 857.22C1181.47 857.22 1181.59 857.22 1181.59 857.34V959.58C1181.59 959.7 1181.59 959.7 1181.47 959.7H1088.49C1088.37 959.7 1088.37 959.7 1088.37 959.58V857.34H1088.49Z" fill="#48466d" stroke="#333333" stroke-width="2" stroke-linecap="round" stroke-linejoin="round" opacity="1"></path><path d="M1162.14 751.78H1114.82 1088.49 1077.69C1077.69 751.78 1077.69 751.78 1077.58 751.78L1047.81 726.99H1047.69L1019.58 760.91V761.03L1046.98 783.8C1056.46 791.75 1068.44 796.02 1080.78 796.02H1088.37C1088.49 796.02 1088.49 796.02 1088.49 796.14V826.62 834.21 856.98C1088.49 857.1 1088.49 857.1 1088.61 857.1H1155.74 1155.85L1163.45 865.64H1163.56L1173.17 857.1C1173.17 857.1 1173.17 857.1 1173.29 857.1H1181.47C1181.59 857.1 1181.59 857.1 1181.59 856.98V849.75 849.63L1194.16 838.48C1204.48 829.23 1210.41 816.06 1210.41 802.19V800.17C1210.65 773.49 1188.95 751.78 1162.14 751.78Z" fill="#ffffff" stroke="#333333" stroke-width="2" stroke-linecap="round" stroke-linejoin="round" opacity="1"></path><path d="M1102.01 760.44C1102.01 760.32 1102.13 760.32 1102.01 760.44L1123.48 760.32C1123.59 760.32 1123.59 760.32 1123.59 760.44V826.86C1123.59 826.98 1123.59 826.98 1123.48 826.98H1102.13C1102.01 826.98 1102.01 826.98 1102.01 826.86V760.44Z" fill="#46cdcf" stroke="#333333" stroke-width="2" stroke-linecap="round" stroke-linejoin="round" opacity="1"></path><path d="M1137.83 794.95C1157.54 794.95 1173.53 778.97 1173.53 759.25 1173.53 739.53 1157.54 723.55 1137.83 723.55 1118.11 723.55 1102.13 739.53 1102.13 759.25 1102.13 778.97 1118.11 794.95 1137.83 794.95Z" fill="#46cdcf" stroke="#333333" stroke-width="2" stroke-linecap="round" stroke-linejoin="round" opacity="1"></path><path d="M1111.38 758.78C1118.78 758.78 1124.78 752.78 1124.78 745.38 1124.78 737.98 1118.78 731.97 1111.38 731.97 1103.98 731.97 1097.98 737.98 1097.98 745.38 1097.98 752.78 1103.98 758.78 1111.38 758.78Z" fill="#3d84a8" stroke="#333333" stroke-width="2" stroke-linecap="round" stroke-linejoin="round" opacity="1"></path><path d="M1114.82 732.33C1115.77 731.86 1141.15 719.16 1160.48 739.21 1164.51 743.48 1172.22 755.81 1164.75 771.11 1157.4 781.08 1144.47 786.18 1131.78 782.97 1118.14 779.65 1108.77 767.91 1107.82 754.63 1107.58 751.42 1107.82 748.1 1108.65 744.78 1109.72 740.04 1111.97 735.77 1114.82 732.33Z" fill="#ffffff" stroke="#333333" stroke-width="2" stroke-linecap="round" stroke-linejoin="round" opacity="1"></path><path d="M1122.65 751.78L1121.58 756.05" stroke="#333333" stroke-width="2" stroke-linecap="round" stroke-linejoin="round" opacity="1" fill="none"></path><path d="M1129.76 758.19C1129.17 760.44 1126.92 761.86 1124.66 761.27 1122.41 760.68 1120.98 758.42 1121.58 756.17" stroke="#333333" stroke-width="2" stroke-linecap="round" stroke-linejoin="round" opacity="1" fill="none"></path><path d="M1146.84 721.66C1159.06 724.62 1167.83 734.46 1170.21 745.97 1171.15 750.48 1171.04 755.22 1169.97 759.96 1169.14 763.29 1167.83 766.37 1166.05 769.1 1165.58 769.81 1165.22 770.4 1164.63 771.11H1164.51C1157.04 769.22 1152.53 761.74 1154.43 754.27L1157.28 742.89V742.77C1157.28 742.77 1157.28 742.77 1157.16 742.77L1114.94 732.33C1114.94 732.33 1114.82 732.33 1114.82 732.21V732.09C1122.41 723.08 1134.74 718.69 1146.84 721.66Z" fill="#48466d" stroke="#333333" stroke-width="2" stroke-linecap="round" stroke-linejoin="round" opacity="1"></path><path d="M1114.82 732.33C1119.21 716.91 1135.22 707.9 1150.64 712.29 1166.05 716.67 1175.07 732.69 1170.68 748.1" stroke="#333333" stroke-width="2" stroke-linecap="round" stroke-linejoin="round" opacity="1" fill="none"></path><path d="M1167.24 774.55C1174.64 774.55 1180.64 768.55 1180.64 761.15 1180.64 753.75 1174.64 747.75 1167.24 747.75 1159.84 747.75 1153.84 753.75 1153.84 761.15 1153.84 768.55 1159.84 774.55 1167.24 774.55Z" fill="#3d84a8" stroke="#333333" stroke-width="2" stroke-linecap="round" stroke-linejoin="round" opacity="1"></path><path d="M1126.68 895.89V882.72" stroke="#333333" stroke-width="2" stroke-linecap="round" stroke-linejoin="round" opacity="1" fill="none"></path><path d="M1126.68 959.7V904.54" stroke="#333333" stroke-width="2" stroke-linecap="round" stroke-linejoin="round" opacity="1" fill="none"></path><path d="M1155.85 857.22L1133.79 832.55 1169.02 801.83" stroke="#333333" stroke-width="2" stroke-linecap="round" stroke-linejoin="round" opacity="1" fill="none"></path><path d="M1181.71 849.75L1173.29 857.22" stroke="#333333" stroke-width="2" stroke-linecap="round" stroke-linejoin="round" opacity="1" fill="none"></path></g></svg>