<svg xmlns="http://www.w3.org/2000/svg" height="1200" width="1600" version="1.1" xmlns:xlink="http://www.w3.org/1999/xlink" xmlns:svgjs="http://svgjs.com/svgjs"><rect fill="#effaff" width="1600" height="1200"></rect><g><path d="M1289.51 1013.64L192.39 1013.64" stroke="#333333" stroke-width="2" stroke-linecap="round" stroke-linejoin="round" opacity="1" fill="none"></path><path d="M1025.71 1025.59L575.39 1025.59" stroke="#333333" stroke-width="2" stroke-linecap="round" stroke-linejoin="round" opacity="1" fill="none"></path><path d="M1120.63 1047.56L740.95 1047.56" stroke="#333333" stroke-width="2" stroke-linecap="round" stroke-linejoin="round" opacity="1" fill="none"></path><path d="M1407.61 1047.56L1236.53 1047.56" stroke="#333333" stroke-width="2" stroke-linecap="round" stroke-linejoin="round" opacity="1" fill="none"></path></g><g><path d="M1345.65 517.47C1311.67 359.45 1156.78 226.75 1001.71 174.45 853.81 124.35 674.52 121.86 521.01 143.32 430.39 156.12 348.07 185.87 306.17 272.89 284.71 317.46 275.5 366.45 266.29 414.98 255.98 470.23 245.48 526.22 247.69 582.39 255.24 768.5 418.61 837.02 577.92 868.51 641 881.03 705.28 890.24 769.28 896.5 829.23 902.31 889.45 904.98 949.86 904.52 1008.7 904.06 1070.22 902.77 1127.13 885.45 1207.43 861.33 1275.3 801.1 1314.62 727.43 1352.83 655.97 1360.2 584.6 1345.65 517.47Z" fill="#deeff7" opacity="1" stroke-width="2" stroke="none"></path></g><g><path d="M591.44 336.29C624.6 325.45 642.69 289.77 631.84 256.61 620.99 223.45 585.32 205.36 552.15 216.21 518.99 227.06 500.9 262.73 511.75 295.89 522.6 329.06 558.28 347.14 591.44 336.29Z" fill="#48466d" stroke="#333333" stroke-width="2" stroke-linecap="round" stroke-linejoin="round" opacity="1"></path><path d="M538.44 364.26C512.73 354.48 491.48 333.6 482.27 305.45" stroke="#333333" stroke-width="2" stroke-linecap="round" stroke-linejoin="round" opacity="1" fill="none"></path><path d="M651.62 326.15C640.34 344.26 622.88 358.61 601.07 365.75 591.88 368.75 582.48 370.3 573.33 370.41" stroke="#333333" stroke-width="2" stroke-linecap="round" stroke-linejoin="round" opacity="1" fill="none"></path><path d="M641.77 213.19C650.27 222.66 657.06 234.04 661.26 246.89 667.15 264.87 667.31 283.28 662.78 300.26" stroke="#333333" stroke-width="2" stroke-linecap="round" stroke-linejoin="round" opacity="1" fill="none"></path><path d="M694 288.6C691.34 314.87 680.18 339.69 662.4 359.1" stroke="#333333" stroke-width="2" stroke-linecap="round" stroke-linejoin="round" opacity="1" fill="none"></path><path d="M467.62 341.31C462.49 333.08 458.19 324.05 455.05 314.45 446.08 287.03 447.26 258.72 456.61 233.6" stroke="#333333" stroke-width="2" stroke-linecap="round" stroke-linejoin="round" opacity="1" fill="none"></path><path d="M636.99 380.29C628.71 385.53 619.64 389.75 609.88 392.95 565.54 407.45 518.97 395.31 487.3 365.41" stroke="#333333" stroke-width="2" stroke-linecap="round" stroke-linejoin="round" opacity="1" fill="none"></path><path d="M715.72 229.17C721.47 246.74 723.83 264.7 723.14 282.13 722.47 299.64 718.78 316.7 712.27 332.61" stroke="#333333" stroke-width="2" stroke-linecap="round" stroke-linejoin="round" opacity="1" fill="none"></path><path d="M697.69 360.44C679.48 387.65 652.4 409.21 618.88 420.18 552.16 442 481.18 414.97 444.76 358.7" stroke="#333333" stroke-width="2" stroke-linecap="round" stroke-linejoin="round" opacity="1" fill="none"></path><path d="M444.32 403.61C438.99 398.33 433.96 392.59 429.31 386.63 420.6 375.43 413.11 363.02 407.18 349.56" stroke="#333333" stroke-width="2" stroke-linecap="round" stroke-linejoin="round" opacity="1" fill="none"></path><path d="M668.59 428.14C656.15 436.08 642.52 442.61 627.8 447.43 570.84 466.06 511.22 454.76 466.11 422.06" stroke="#333333" stroke-width="2" stroke-linecap="round" stroke-linejoin="round" opacity="1" fill="none"></path><path d="M747 317.92C738.8 352.3 720.54 383.77 694.53 408.04" stroke="#333333" stroke-width="2" stroke-linecap="round" stroke-linejoin="round" opacity="1" fill="none"></path><path d="M723.81 419.35C706.38 437.93 685.34 453.46 661.4 464.81" stroke="#333333" stroke-width="2" stroke-linecap="round" stroke-linejoin="round" opacity="1" fill="none"></path><path d="M636.68 474.6C589.33 490.09 540.38 487.74 497.13 471.17" stroke="#333333" stroke-width="2" stroke-linecap="round" stroke-linejoin="round" opacity="1" fill="none"></path></g><g><path d="M1242.38 918.12V899.7C1242.38 820.56 1183.16 756.2 1110.35 756.2H776.63V1013.86H946.94 1242.17V945.64" fill="#3d84a8" opacity="1" stroke-width="2" stroke="none"></path><path d="M1242.38 918.12V899.7C1242.38 820.56 1183.16 756.2 1110.35 756.2H776.63V1013.86H946.94 1242.17V945.64" stroke="#333333" stroke-width="2" stroke-linecap="round" stroke-linejoin="round" opacity="1" fill="none"></path><path d="M687.5 809.64H890.45C902.58 793.5 905.93 770.07 895.26 749.38L886.06 731.41C880.62 720.5 880.41 707.53 886.06 696.62L896.52 676.15C906.14 657.05 903 634.54 888.36 618.39L842.74 567.9H687.5V809.64 809.64Z" fill="#78c7e0" stroke="#333333" stroke-width="2" stroke-linecap="round" stroke-linejoin="round" opacity="1"></path><path d="M793.99 711.86H836.05" stroke="#333333" stroke-width="2" stroke-linecap="round" stroke-linejoin="round" opacity="1" fill="none"></path><path d="M798.81 695.03H856.97" stroke="#333333" stroke-width="2" stroke-linecap="round" stroke-linejoin="round" opacity="1" fill="none"></path><path d="M813.87 652.5H839.19" stroke="#333333" stroke-width="2" stroke-linecap="round" stroke-linejoin="round" opacity="1" fill="none"></path><path d="M876.85 652.5H901.96" stroke="#333333" stroke-width="2" stroke-linecap="round" stroke-linejoin="round" opacity="1" fill="none"></path><path d="M860.74 756.2H885.85" stroke="#333333" stroke-width="2" stroke-linecap="round" stroke-linejoin="round" opacity="1" fill="none"></path><path d="M846.51 711.86H856.97" stroke="#333333" stroke-width="2" stroke-linecap="round" stroke-linejoin="round" opacity="1" fill="none"></path><path d="M810.73 756.2H627.66C586.02 756.2 552.33 792.81 552.33 838.07V895.6H467.18C407.13 895.6 358.38 948.59 358.38 1013.86H894.84V836.25C894.84 796.68 869.32 756.2 829.98 756.2H810.73Z" fill="#3d84a8" stroke="#333333" stroke-width="2" stroke-linecap="round" stroke-linejoin="round" opacity="1"></path><path d="M798.18 731.41C792.74 720.5 792.53 707.53 798.18 696.62L808.64 676.15C818.26 657.05 815.13 634.54 800.48 618.39L754.87 567.9H677.24 599.62L553.8 618.16C539.15 634.31 536.01 656.82 545.64 675.92L556.1 696.39C561.54 707.31 561.54 720.5 556.1 731.19L527.43 787.36C517.81 806.23 530.36 829.43 550.24 829.43H677.24 804.04C823.91 829.43 836.47 806.23 826.84 787.36L798.18 731.41Z" fill="#3d84a8" stroke="#333333" stroke-width="2" stroke-linecap="round" stroke-linejoin="round" opacity="1"></path><path d="M586.02 976.79C582.46 988.39 580.58 1000.9 580.58 1013.86" stroke="#333333" stroke-width="2" stroke-linecap="round" stroke-linejoin="round" opacity="1" fill="none"></path><path d="M776.63 830.34V895.38H689.38C649 895.38 613.85 919.26 595.02 954.73" stroke="#333333" stroke-width="2" stroke-linecap="round" stroke-linejoin="round" opacity="1" fill="none"></path><path d="M676.62 613.39C647.74 613.39 622.84 625.89 610.71 652.05 605.48 662.96 602.55 675.47 602.55 688.66 602.55 733.23 635.82 769.16 676.62 769.16 711.35 769.16 740.43 743.24 748.59 708.22 750.06 701.85 750.89 695.48 750.89 688.66 750.68 644.09 717.42 613.39 676.62 613.39Z" fill="#ffffff" stroke="#333333" stroke-width="2" stroke-linecap="round" stroke-linejoin="round" opacity="1"></path><path d="M676.62 608.16C647.74 608.16 622.84 626.12 610.71 652.05H710.3V665.46C710.3 688.66 727.25 707.53 748.59 708.22 750.06 701.85 750.89 695.48 750.89 688.66 750.68 644.09 717.42 608.16 676.62 608.16Z" fill="#48466d" stroke="#333333" stroke-width="2" stroke-linecap="round" stroke-linejoin="round" opacity="1"></path><path d="M634.35 672.97V700.48" stroke="#333333" stroke-width="2" stroke-linecap="round" stroke-linejoin="round" opacity="1" fill="none"></path><path d="M653.39 700.48C653.39 706.17 649.21 710.95 643.77 710.95 638.54 710.95 634.14 706.4 634.14 700.48" stroke="#333333" stroke-width="2" stroke-linecap="round" stroke-linejoin="round" opacity="1" fill="none"></path></g><g><path d="M1287.35 985.73L1291.05 980.75C1300.29 969.57 1314.35 962.54 1329.94 962.54 1348.41 962.54 1364.67 972.53 1373.54 987.3 1377.99 994.89 1380.64 1003.64 1380.64 1013.17H1358.65 1279.31C1279.2 1003.11 1282.26 993.58 1287.35 985.73Z" fill="#46cdcf" stroke="#333333" stroke-width="2" stroke-linecap="round" stroke-linejoin="round" opacity="1"></path><path d="M1158.76 966.69L1164.97 958.28C1180.67 939.44 1204.3 927.51 1230.74 927.51 1262.07 927.51 1289.48 944.33 1304.47 969.46 1312.06 982.29 1316.48 997.17 1316.48 1013.17H1279.35 1145.11C1145.07 996.08 1150.16 980.12 1158.76 966.69Z" fill="#abedd8" stroke="#333333" stroke-width="2" stroke-linecap="round" stroke-linejoin="round" opacity="1"></path></g><g><path d="M314.7 985.71L311 980.75C301.78 969.58 287.74 962.56 272.17 962.56 253.72 962.56 237.48 972.53 228.63 987.28 224.18 994.86 221.53 1003.6 221.53 1013.12H243.49 322.72C322.84 1003.08 319.77 993.56 314.7 985.71Z" fill="#46cdcf" stroke="#333333" stroke-width="2" stroke-linecap="round" stroke-linejoin="round" opacity="1"></path><path d="M443.11 966.71L436.91 958.31C421.23 939.49 397.63 927.57 371.23 927.57 339.94 927.57 312.57 944.38 297.59 969.47 290.01 982.28 285.61 997.14 285.61 1013.12H322.69 456.74C456.78 996.06 451.7 980.11 443.11 966.71Z" fill="#abedd8" stroke="#333333" stroke-width="2" stroke-linecap="round" stroke-linejoin="round" opacity="1"></path></g></svg>