<svg xmlns="http://www.w3.org/2000/svg" height="1200" width="1600" version="1.1" xmlns:xlink="http://www.w3.org/1999/xlink" xmlns:svgjs="http://svgjs.com/svgjs"><rect fill="#effaff" width="1600" height="1200"></rect><g><path d="M216.18 1027.89L716.82 1027.89" stroke="#333333" stroke-width="2" stroke-linecap="round" stroke-linejoin="round" opacity="1" fill="none"></path><path d="M915.83 1027.89L1167.71 1027.89" stroke="#333333" stroke-width="2" stroke-linecap="round" stroke-linejoin="round" opacity="1" fill="none"></path><path d="M216.18 1013.31L1383.82 1013.31" stroke="#333333" stroke-width="2" stroke-linecap="round" stroke-linejoin="round" opacity="1" fill="none"></path></g><g><path d="M1361.64 464.2C1347.44 409.6 1312.54 361.3 1263.14 333.3 1248.34 324.8 1231.84 318 1220.74 305.1 1204.24 286.7 1202.14 261.1 1190.04 240.5 1176.94 218.1 1154.44 199.4 1131.84 187.3 1101.14 170.6 1067.24 162.1 1033.54 154.5 995.64 146.2 957.14 140.1 918.54 135.7 845.04 127.4 771.84 129.3 698.74 139.9 633.94 149.4 571.94 168.7 512.24 195.4 452.24 222 385.04 259 344.44 311.9 332.84 326.9 323.24 343 312.44 358.5 275.84 410.6 240.64 449.5 231.14 515.6 219.74 595.2 226.24 682.9 276.04 749.4 321.74 810.4 388.44 845.7 460.64 865.6 492.84 874.5 526.04 880.4 558.94 885.3 602.94 891.9 647.24 897.2 691.54 900.5 772.24 906.4 853.54 905.8 934.24 899.2 978.44 895.4 1022.34 889.9 1066.14 882.9 1103.64 876.8 1141.14 868.9 1176.64 854.9 1216.04 839.6 1251.34 820 1283.34 792.2 1314.64 765.1 1336.54 730.6 1351.74 692.5 1377.84 625.4 1379.64 537.1 1362.54 467.6 1362.24 466.5 1361.84 465.3 1361.64 464.2Z" fill="#deeff7" opacity="1" stroke-width="2" stroke="none"></path></g><g><path d="M959.09 316.49H988.86C1007.97 316.49 1023.61 332 1023.61 351.24 1023.61 370.35 1008.1 386 988.86 386H841.66C822.56 386 806.91 370.49 806.91 351.24 806.91 332.14 822.42 316.49 841.66 316.49H942.75" fill="#78c7e0" opacity="1" stroke-width="2" stroke="none"></path><path d="M959.09 316.49H988.86C1007.97 316.49 1023.61 332 1023.61 351.24 1023.61 370.35 1008.1 386 988.86 386H841.66C822.56 386 806.91 370.49 806.91 351.24 806.91 332.14 822.42 316.49 841.66 316.49H942.75" stroke="#333333" stroke-width="2" stroke-linecap="round" stroke-linejoin="round" opacity="1" fill="none"></path><path d="M801.65 286.44H754.57C772.57 286.44 787.11 271.9 787.11 253.9 787.11 235.9 772.57 221.36 754.57 221.36H604.05C586.05 221.36 571.51 235.9 571.51 253.9 571.51 271.9 586.05 286.44 604.05 286.44H491.89C473.89 286.44 459.35 300.98 459.35 318.98 459.35 336.98 473.89 351.52 491.89 351.52H801.65C819.65 351.52 834.19 336.98 834.19 318.98 834.19 300.98 819.65 286.44 801.65 286.44Z" fill="#78c7e0" stroke="#333333" stroke-width="2" stroke-linecap="round" stroke-linejoin="round" opacity="1"></path><path d="M754.43 286.44H709.29" stroke="#333333" stroke-width="2" stroke-linecap="round" stroke-linejoin="round" opacity="1" fill="none"></path><path d="M727.84 351.52L701.67 397.91H727.84" stroke="#333333" stroke-width="2" stroke-linecap="round" stroke-linejoin="round" opacity="1" fill="none"></path><path d="M727.84 397.91L701.67 444.16H727.84" stroke="#333333" stroke-width="2" stroke-linecap="round" stroke-linejoin="round" opacity="1" fill="none"></path><path d="M727.84 444.16L703.47 487.36" stroke="#333333" stroke-width="2" stroke-linecap="round" stroke-linejoin="round" opacity="1" fill="none"></path><path d="M659.72 351.52L633.68 397.91H659.72" stroke="#333333" stroke-width="2" stroke-linecap="round" stroke-linejoin="round" opacity="1" fill="none"></path><path d="M659.72 397.91L633.68 444.16H659.72" stroke="#333333" stroke-width="2" stroke-linecap="round" stroke-linejoin="round" opacity="1" fill="none"></path><path d="M659.72 444.16L633.68 490.41" stroke="#333333" stroke-width="2" stroke-linecap="round" stroke-linejoin="round" opacity="1" fill="none"></path><path d="M591.73 351.52L565.7 397.91H591.73" stroke="#333333" stroke-width="2" stroke-linecap="round" stroke-linejoin="round" opacity="1" fill="none"></path><path d="M591.73 397.91L565.7 444.16H591.73" stroke="#333333" stroke-width="2" stroke-linecap="round" stroke-linejoin="round" opacity="1" fill="none"></path><path d="M591.73 444.16L565.7 490.41" stroke="#333333" stroke-width="2" stroke-linecap="round" stroke-linejoin="round" opacity="1" fill="none"></path></g><g><path d="M757.64 458.3V506.57" stroke="#333333" stroke-width="2" stroke-linecap="round" stroke-linejoin="round" opacity="1" fill="none"></path><path d="M770.55 503.06H743.89V531.04H770.55V503.06Z" fill="#3d84a8" stroke="#333333" stroke-width="2" stroke-linecap="round" stroke-linejoin="round" opacity="1"></path><path d="M788.11 525.03H726.33V543.06H788.11V525.03Z" fill="#3d84a8" stroke="#333333" stroke-width="2" stroke-linecap="round" stroke-linejoin="round" opacity="1"></path><path d="M1059.1 963.09V711.02C1059.1 710.96 1059.1 710.96 1059.04 710.96H904.17C904.11 710.96 904.11 710.96 904.11 710.9V630.91C904.11 630.85 904.11 630.85 904.05 630.85H807.93C807.87 630.85 807.87 630.85 807.87 630.79V536.1C807.87 536.04 807.87 536.04 807.81 536.04H706.51C706.45 536.04 706.45 536.04 706.45 536.1V710.9C706.45 710.96 706.45 710.96 706.39 710.96H545.75C545.69 710.96 545.69 710.96 545.69 711.02V1013.56C545.69 1013.62 545.69 1013.62 545.75 1013.62H1059.04C1059.1 1013.62 1059.1 1013.62 1059.1 1013.56V967.97" fill="#3d84a8" opacity="1" stroke-width="2" stroke="none"></path><path d="M1059.1 963.09V711.02C1059.1 710.96 1059.1 710.96 1059.04 710.96H904.17C904.11 710.96 904.11 710.96 904.11 710.9V630.91C904.11 630.85 904.11 630.85 904.05 630.85H807.93C807.87 630.85 807.87 630.85 807.87 630.79V536.1C807.87 536.04 807.87 536.04 807.81 536.04H706.51C706.45 536.04 706.45 536.04 706.45 536.1V710.9C706.45 710.96 706.45 710.96 706.39 710.96H545.75C545.69 710.96 545.69 710.96 545.69 711.02V1013.56C545.69 1013.62 545.69 1013.62 545.75 1013.62H1059.04C1059.1 1013.62 1059.1 1013.62 1059.1 1013.56V967.97" stroke="#333333" stroke-width="2" stroke-linecap="round" stroke-linejoin="round" opacity="1" fill="none"></path><path d="M938.28 726.74H920.54V744.47H938.28V726.74Z" fill="#78c7e0" stroke="#333333" stroke-width="2" stroke-linecap="round" stroke-linejoin="round" opacity="1"></path><path d="M938.28 754.65H920.54V772.39H938.28V754.65Z" fill="#78c7e0" stroke="#333333" stroke-width="2" stroke-linecap="round" stroke-linejoin="round" opacity="1"></path><path d="M835.43 643.53H821.14V657.81H835.43V643.53Z" fill="#78c7e0" stroke="#333333" stroke-width="2" stroke-linecap="round" stroke-linejoin="round" opacity="1"></path><path d="M858.7 643.53H844.42V657.81H858.7V643.53Z" fill="#78c7e0" stroke="#333333" stroke-width="2" stroke-linecap="round" stroke-linejoin="round" opacity="1"></path><path d="M835.43 666.5H821.14V680.79H835.43V666.5Z" fill="#78c7e0" stroke="#333333" stroke-width="2" stroke-linecap="round" stroke-linejoin="round" opacity="1"></path><path d="M579.91 726.74H562.18V744.47H579.91V726.74Z" fill="#78c7e0" stroke="#333333" stroke-width="2" stroke-linecap="round" stroke-linejoin="round" opacity="1"></path><path d="M608.78 726.74H591.04V744.47H608.78V726.74Z" fill="#78c7e0" stroke="#333333" stroke-width="2" stroke-linecap="round" stroke-linejoin="round" opacity="1"></path><path d="M734.01 548.71H719.72V563H734.01V548.71Z" fill="#78c7e0" stroke="#333333" stroke-width="2" stroke-linecap="round" stroke-linejoin="round" opacity="1"></path><path d="M757.28 548.71H743V563H757.28V548.71Z" fill="#78c7e0" stroke="#333333" stroke-width="2" stroke-linecap="round" stroke-linejoin="round" opacity="1"></path><path d="M780.49 558.48V563H766.21V548.71H780.49V554.55" fill="#78c7e0" opacity="1" stroke-width="2" stroke="none"></path><path d="M780.49 558.48V563H766.21V548.71H780.49V554.55" stroke="#333333" stroke-width="2" stroke-linecap="round" stroke-linejoin="round" opacity="1" fill="none"></path><path d="M734.01 571.69H719.72V585.97H734.01V571.69Z" fill="#78c7e0" stroke="#333333" stroke-width="2" stroke-linecap="round" stroke-linejoin="round" opacity="1"></path><path d="M757.28 571.69H743V585.97H757.28V571.69Z" fill="#78c7e0" stroke="#333333" stroke-width="2" stroke-linecap="round" stroke-linejoin="round" opacity="1"></path><path d="M734.01 643.53H719.72V657.81H734.01V643.53Z" fill="#78c7e0" stroke="#333333" stroke-width="2" stroke-linecap="round" stroke-linejoin="round" opacity="1"></path><path d="M706.45 710.96V1013.56" stroke="#333333" stroke-width="2" stroke-linecap="round" stroke-linejoin="round" opacity="1" fill="none"></path><path d="M807.87 630.85V1013.56" stroke="#333333" stroke-width="2" stroke-linecap="round" stroke-linejoin="round" opacity="1" fill="none"></path><path d="M904.11 710.96V1013.56" stroke="#333333" stroke-width="2" stroke-linecap="round" stroke-linejoin="round" opacity="1" fill="none"></path></g><g><path d="M1202.7 770.2C1199.3 758.44 1202.17 745.24 1211.45 735.96L1285.41 662C1299 648.41 1320.95 648.41 1334.41 662 1348 675.59 1348 697.54 1334.41 711L1260.45 784.96C1246.99 798.42 1225.3 798.55 1211.71 785.22 1207.4 780.91 1205.57 777.38 1202.7 770.2Z" fill="#abedd8" opacity="1" stroke-width="2" stroke="none"></path><path d="M1202.7 770.2C1199.3 758.44 1202.17 745.24 1211.45 735.96L1285.41 662C1299 648.41 1320.95 648.41 1334.41 662 1348 675.59 1348 697.54 1334.41 711L1260.45 784.96C1246.99 798.42 1225.3 798.55 1211.71 785.22 1207.4 780.91 1205.57 777.38 1202.7 770.2Z" stroke="#333333" stroke-width="2" stroke-linecap="round" stroke-linejoin="round" opacity="1" fill="none"></path><path d="M1145.59 1014.81V949.35C1145.59 886.62 1170.55 826.38 1214.85 782.09L1273.39 723.55" stroke="#333333" stroke-width="2" stroke-linecap="round" stroke-linejoin="round" opacity="1" fill="none"></path></g><g><path d="M315.85 768.85C312.46 757.11 315.33 743.94 324.59 734.68L398.4 660.87C411.97 647.3 433.88 647.3 447.31 660.87 460.87 674.43 460.87 696.34 447.31 709.77L373.49 783.59C360.06 797.02 338.41 797.15 324.85 783.85 320.55 779.54 318.72 776.02 315.85 768.85Z" fill="#abedd8" opacity="1" stroke-width="2" stroke="none"></path><path d="M315.85 768.85C312.46 757.11 315.33 743.94 324.59 734.68L398.4 660.87C411.97 647.3 433.88 647.3 447.31 660.87 460.87 674.43 460.87 696.34 447.31 709.77L373.49 783.59C360.06 797.02 338.41 797.15 324.85 783.85 320.55 779.54 318.72 776.02 315.85 768.85Z" stroke="#333333" stroke-width="2" stroke-linecap="round" stroke-linejoin="round" opacity="1" fill="none"></path><path d="M258.86 1012.98V947.65C258.86 885.05 283.77 824.93 327.98 780.72L386.4 722.29" stroke="#333333" stroke-width="2" stroke-linecap="round" stroke-linejoin="round" opacity="1" fill="none"></path></g></svg>