<svg xmlns="http://www.w3.org/2000/svg" height="1200" width="1600" version="1.1" xmlns:xlink="http://www.w3.org/1999/xlink" xmlns:svgjs="http://svgjs.com/svgjs"><rect fill="#effaff" width="1600" height="1200"></rect><g><path d="M209.9 1014.04H487.35" stroke="#333333" stroke-width="2" stroke-linecap="round" stroke-linejoin="round" opacity="1" fill="none"></path><path d="M503.38 1014.04H687.88" stroke="#333333" stroke-width="2" stroke-linecap="round" stroke-linejoin="round" opacity="1" fill="none"></path><path d="M1121.9 1041.9H1265.78C1277.78 1041.9 1287.42 1035.71 1287.42 1028 1287.42 1020.29 1277.78 1014.1 1265.78 1014.1" stroke="#333333" stroke-width="2" stroke-linecap="round" stroke-linejoin="round" opacity="1" fill="none"></path><path d="M944.77 1061.3H1053.64C1070.27 1061.3 1083.84 1052.64 1083.84 1041.9" stroke="#333333" stroke-width="2" stroke-linecap="round" stroke-linejoin="round" opacity="1" fill="none"></path><path d="M864.91 1061.3H920.87" stroke="#333333" stroke-width="2" stroke-linecap="round" stroke-linejoin="round" opacity="1" fill="none"></path><path d="M1106.56 1041.9H1012.73" stroke="#333333" stroke-width="2" stroke-linecap="round" stroke-linejoin="round" opacity="1" fill="none"></path><path d="M790.26 1041.9H585.6" stroke="#333333" stroke-width="2" stroke-linecap="round" stroke-linejoin="round" opacity="1" fill="none"></path><path d="M567.7 1041.9H542.13" stroke="#333333" stroke-width="2" stroke-linecap="round" stroke-linejoin="round" opacity="1" fill="none"></path><path d="M386.34 1041.9H295.86" stroke="#333333" stroke-width="2" stroke-linecap="round" stroke-linejoin="round" opacity="1" fill="none"></path><path d="M403.06 1041.9H507.7C516.26 1041.9 523.05 1046.32 523.05 1051.76 523.05 1057.25 516.16 1061.61 507.7 1061.61H454.89" stroke="#333333" stroke-width="2" stroke-linecap="round" stroke-linejoin="round" opacity="1" fill="none"></path><path d="M494.13 1081.39H441.32C432.76 1081.39 425.98 1076.96 425.98 1071.53 425.98 1066.03 432.86 1061.68 441.32 1061.68" stroke="#333333" stroke-width="2" stroke-linecap="round" stroke-linejoin="round" opacity="1" fill="none"></path><path d="M509.18 1081.39H567.7" stroke="#333333" stroke-width="2" stroke-linecap="round" stroke-linejoin="round" opacity="1" fill="none"></path><path d="M585.6 1081.39H642.64" stroke="#333333" stroke-width="2" stroke-linecap="round" stroke-linejoin="round" opacity="1" fill="none"></path><path d="M704.21 1014.04H1390.1" stroke="#333333" stroke-width="2" stroke-linecap="round" stroke-linejoin="round" opacity="1" fill="none"></path></g><g><path d="M1279.53 605.27C1275.88 563.21 1259.55 524.41 1240.54 487.15 1233.43 473.03 1224.5 460.07 1214.51 447.68 1225.37 419.54 1232.95 390.25 1234.68 359.72 1237.08 316.79 1224.02 271.08 1199.82 235.55 1150.17 162.95 1070.47 123.09 985.09 110.13 902.8 97.55 816.08 93.23 733.11 102.54 689.6 107.34 646.2 114.64 604.81 130.1 562.75 145.95 526.35 166.31 491.3 194.06 473.05 208.56 456.44 224.79 441.65 243.04 371.64 311.03 328.14 402.74 320.75 501.94 311.91 622.36 366.07 750.66 459.8 827.1 554.68 904.22 677.31 939.56 798.89 931.1 864.09 926.59 928.24 912.47 989.51 889.52 1049.34 867.24 1110.42 840.16 1163.23 804.15 1229.11 759.78 1287.11 689.3 1279.53 605.27Z" fill="#deeff7" opacity="1" stroke-width="2" stroke="none"></path></g><g><path d="M670.15 273.85V300.3C670.15 307.75 667.24 314.34 662.48 319.09 657.73 323.84 650.93 326.76 643.7 326.76H574.91C567.68 326.76 561.63 332.7 561.63 340.04 561.63 347.27 567.78 353.32 574.91 353.32H583.77C598.88 353.32 611.41 365.63 611.41 380.96 611.41 388.63 608.39 395.54 603.31 400.51 598.34 405.48 591.43 408.61 583.77 408.61H416.93C401.82 408.61 389.29 396.3 389.29 380.96 389.29 373.51 392.31 366.6 397.39 361.42 402.36 356.45 409.27 353.32 416.93 353.32H461.64C468.87 353.32 474.92 347.38 474.92 340.04 474.92 332.8 468.98 326.76 461.64 326.76H377.09C362.51 326.76 350.63 314.88 350.63 300.08 350.63 285.29 362.51 273.63 377.09 273.63L670.15 273.85Z" fill="#78c7e0" stroke="#333333" stroke-width="2" opacity="1"></path><path d="M651.79 234C631.06 234 614.22 250.85 614.22 271.58 614.22 292.31 631.06 309.16 651.79 309.16H854.58C875.32 309.16 892.16 292.31 892.16 271.58 892.16 250.85 875.32 234 854.58 234 854.58 234 651.79 234 651.79 234Z" fill="#78c7e0" stroke="#333333" stroke-width="2" opacity="1"></path><path d="M1138.36 352.13H913.33C898.75 352.13 887.09 363.79 887.09 378.37 887.09 392.95 898.75 404.61 913.33 404.61H875.53C865.17 404.61 856.74 413.03 856.74 423.4 856.74 433.77 865.17 442.19 875.53 442.19H991.94C1012.67 442.19 1029.52 425.34 1029.52 404.61H1138.36C1152.94 404.61 1164.6 392.95 1164.6 378.37 1164.6 363.79 1152.94 352.13 1138.36 352.13Z" fill="#78c7e0" stroke="#333333" stroke-width="2" opacity="1"></path><path d="M670.15 497.8H552.45" stroke="#333333" stroke-width="2" stroke-linecap="round" stroke-linejoin="round" opacity="1" fill="none"></path><path d="M552.45 447.37C531.5 447.37 514.66 430.53 514.66 409.58" stroke="#333333" stroke-width="2" stroke-linecap="round" stroke-linejoin="round" opacity="1" fill="none"></path><path d="M841.2 271.58H1016.67" stroke="#333333" stroke-width="2" stroke-linecap="round" stroke-linejoin="round" opacity="1" fill="none"></path><path d="M1028.11 271.58C1037.94 271.58 1045.93 279.68 1045.93 289.39 1045.93 299.11 1037.83 307.21 1028.11 307.21" stroke="#333333" stroke-width="2" stroke-linecap="round" stroke-linejoin="round" opacity="1" fill="none"></path><path d="M1004.14 307.21H1110.93" stroke="#333333" stroke-width="2" stroke-linecap="round" stroke-linejoin="round" opacity="1" fill="none"></path><path d="M1164.6 378.37H1249.37" stroke="#333333" stroke-width="2" stroke-linecap="round" stroke-linejoin="round" opacity="1" fill="none"></path></g><g><path d="M808.06 488.14L806.71 474.87H793.68L784.46 563.37H815.93L808.92 495.77" fill="#3d84a8" opacity="1" stroke-width="2" stroke="none"></path><path d="M808.06 488.14L806.71 474.87H793.68L784.46 563.37H815.93L808.92 495.77" stroke="#333333" stroke-width="2" stroke-linecap="round" stroke-linejoin="round" opacity="1" fill="none"></path><path d="M824.9 556.98H775.49V579.1H824.9V556.98Z" fill="#3d84a8" stroke="#333333" stroke-width="2" stroke-linecap="round" stroke-linejoin="round" opacity="1"></path><path d="M800.19 563.37C875.17 563.37 835.1 641.54 861.65 654.94V716.65H738.73V654.94C763.44 642.53 730.74 574.43 785.57 564.6" fill="#3d84a8" opacity="1" stroke-width="2" stroke="none"></path><path d="M800.19 563.37C875.17 563.37 835.1 641.54 861.65 654.94V716.65H738.73V654.94C763.44 642.53 730.74 574.43 785.57 564.6" stroke="#333333" stroke-width="2" stroke-linecap="round" stroke-linejoin="round" opacity="1" fill="none"></path><path d="M752.75 689.36C733.69 689.36 757.54 649.29 722.39 649.29 687.23 649.29 711.08 689.36 692.03 689.36H687.23V709.27H757.54V689.36H752.75Z" fill="#78c7e0" stroke="#333333" stroke-width="2" stroke-linecap="round" stroke-linejoin="round" opacity="1"></path><path d="M687.35 689.36H726.93" stroke="#333333" stroke-width="2" stroke-linecap="round" stroke-linejoin="round" opacity="1" fill="none"></path><path d="M735.91 689.36H757.54" stroke="#333333" stroke-width="2" stroke-linecap="round" stroke-linejoin="round" opacity="1" fill="none"></path><path d="M722.51 649.29V630.48" stroke="#333333" stroke-width="2" stroke-linecap="round" stroke-linejoin="round" opacity="1" fill="none"></path><path d="M778.68 675.47C778.31 683.09 777.45 689.48 769.83 689.48H765.04V709.39H835.35V689.48H830.55C811.5 689.48 835.35 649.41 800.19 649.41 784.21 649.41 780.4 657.77 779.3 666.87" fill="#78c7e0" opacity="1" stroke-width="2" stroke="none"></path><path d="M778.68 675.47C778.31 683.09 777.45 689.48 769.83 689.48H765.04V709.39H835.35V689.48H830.55C811.5 689.48 835.35 649.41 800.19 649.41 784.21 649.41 780.4 657.77 779.3 666.87" stroke="#333333" stroke-width="2" stroke-linecap="round" stroke-linejoin="round" opacity="1" fill="none"></path><path d="M765.04 689.36H813.71" stroke="#333333" stroke-width="2" stroke-linecap="round" stroke-linejoin="round" opacity="1" fill="none"></path><path d="M813.71 689.36H835.35" stroke="#333333" stroke-width="2" stroke-linecap="round" stroke-linejoin="round" opacity="1" fill="none"></path><path d="M800.19 649.29V630.48" stroke="#333333" stroke-width="2" stroke-linecap="round" stroke-linejoin="round" opacity="1" fill="none"></path><path d="M908.36 689.36C889.31 689.36 913.15 649.29 878 649.29 842.84 649.29 866.69 689.36 847.64 689.36H842.84V709.27H913.15V689.36H908.36Z" fill="#78c7e0" stroke="#333333" stroke-width="2" stroke-linecap="round" stroke-linejoin="round" opacity="1"></path><path d="M842.84 689.36H882.42" stroke="#333333" stroke-width="2" stroke-linecap="round" stroke-linejoin="round" opacity="1" fill="none"></path><path d="M878 649.29V630.48" stroke="#333333" stroke-width="2" stroke-linecap="round" stroke-linejoin="round" opacity="1" fill="none"></path><path d="M913.15 705.71H687.35V734.84H913.15V705.71Z" fill="#78c7e0" stroke="#333333" stroke-width="2" stroke-linecap="round" stroke-linejoin="round" opacity="1"></path><path d="M988.5 806.99C999.44 806.99 993.54 784.13 1005.83 784.13 1018.12 784.13 1012.22 806.99 1023.16 806.99H1025.87V820.02H985.8V806.99H988.5Z" fill="#78c7e0" stroke="#333333" stroke-width="2" stroke-linecap="round" stroke-linejoin="round" opacity="1"></path><path d="M1025.99 806.99H1003.37" stroke="#333333" stroke-width="2" stroke-linecap="round" stroke-linejoin="round" opacity="1" fill="none"></path><path d="M998.21 806.99H985.8" stroke="#333333" stroke-width="2" stroke-linecap="round" stroke-linejoin="round" opacity="1" fill="none"></path><path d="M584.97 796.91C583.61 802.2 582.14 806.99 577.1 806.99H574.39V820.02H614.47V806.99H611.76C600.82 806.99 606.72 784.13 594.43 784.13 589.88 784.13 587.79 787.32 586.44 791.38" fill="#78c7e0" opacity="1" stroke-width="2" stroke="none"></path><path d="M584.97 796.91C583.61 802.2 582.14 806.99 577.1 806.99H574.39V820.02H614.47V806.99H611.76C600.82 806.99 606.72 784.13 594.43 784.13 589.88 784.13 587.79 787.32 586.44 791.38" stroke="#333333" stroke-width="2" stroke-linecap="round" stroke-linejoin="round" opacity="1" fill="none"></path><path d="M574.52 806.99H597.13" stroke="#333333" stroke-width="2" stroke-linecap="round" stroke-linejoin="round" opacity="1" fill="none"></path><path d="M597.13 806.99H614.59" stroke="#333333" stroke-width="2" stroke-linecap="round" stroke-linejoin="round" opacity="1" fill="none"></path><path d="M683.05 766.43V716.65H917.33V816.33H683.05V766.43Z" fill="#3d84a8" stroke="#333333" stroke-width="2" stroke-linecap="round" stroke-linejoin="round" opacity="1"></path><path d="M633.27 785.11V766.43H967.11V916.02H633.27V800.23" fill="#3d84a8" opacity="1" stroke-width="2" stroke="none"></path><path d="M633.27 785.11V766.43H967.11V916.02H633.27V800.23" stroke="#333333" stroke-width="2" stroke-linecap="round" stroke-linejoin="round" opacity="1" fill="none"></path><path d="M718.7 950.8L757.91 908.77H842.48L939.09 1012.63H661.3L708.25 962.11" fill="#78c7e0" opacity="1" stroke-width="2" stroke="none"></path><path d="M718.7 950.8L757.91 908.77H842.48L939.09 1012.63H661.3L708.25 962.11" stroke="#333333" stroke-width="2" stroke-linecap="round" stroke-linejoin="round" opacity="1" fill="none"></path><path d="M1160.95 895.98H1108.47V916.02H1160.95V895.98Z" fill="#3d84a8" stroke="#333333" stroke-width="2" stroke-linecap="round" stroke-linejoin="round" opacity="1"></path><path d="M1069.75 856.89C1080.69 856.89 1074.79 834.03 1087.08 834.03 1099.37 834.03 1093.47 856.89 1104.41 856.89H1107.11V869.92H1067.04V856.89H1069.75Z" fill="#78c7e0" stroke="#333333" stroke-width="2" stroke-linecap="round" stroke-linejoin="round" opacity="1"></path><path d="M1107.11 856.89H1097.9" stroke="#333333" stroke-width="2" stroke-linecap="round" stroke-linejoin="round" opacity="1" fill="none"></path><path d="M1079.34 856.89H1066.92" stroke="#333333" stroke-width="2" stroke-linecap="round" stroke-linejoin="round" opacity="1" fill="none"></path><path d="M1092.61 856.89H1084.74" stroke="#333333" stroke-width="2" stroke-linecap="round" stroke-linejoin="round" opacity="1" fill="none"></path><path d="M530.76 856.89C519.82 856.89 525.72 834.03 513.43 834.03 501.14 834.03 507.04 856.89 496.1 856.89H493.39V869.92H533.46V856.89H530.76Z" fill="#78c7e0" stroke="#333333" stroke-width="2" stroke-linecap="round" stroke-linejoin="round" opacity="1"></path><path d="M509.25 856.89H533.46" stroke="#333333" stroke-width="2" stroke-linecap="round" stroke-linejoin="round" opacity="1" fill="none"></path><path d="M1047.13 816.33H553.38V916.02H1047.13V816.33Z" fill="#3d84a8" stroke="#333333" stroke-width="2" stroke-linecap="round" stroke-linejoin="round" opacity="1"></path><path d="M491.92 895.98H439.43V916.02H491.92V895.98Z" fill="#3d84a8" stroke="#333333" stroke-width="2" stroke-linecap="round" stroke-linejoin="round" opacity="1"></path><path d="M473.36 866.11H1127.03V916.02H842.48L800.19 910.12 757.91 916.02H473.36V866.11Z" fill="#3d84a8" stroke="#333333" stroke-width="2" stroke-linecap="round" stroke-linejoin="round" opacity="1"></path><path d="M473.36 895.98H432.06" stroke="#333333" stroke-width="2" stroke-linecap="round" stroke-linejoin="round" opacity="1" fill="none"></path><path d="M829.69 816.33H770.82V866.11H829.69V816.33Z" fill="#78c7e0" stroke="#333333" stroke-width="2" stroke-linecap="round" stroke-linejoin="round" opacity="1"></path><path d="M816.79 766.43H783.6V816.21H816.79V766.43Z" fill="#78c7e0" stroke="#333333" stroke-width="2" stroke-linecap="round" stroke-linejoin="round" opacity="1"></path><path d="M520.93 866.11V896.84" stroke="#333333" stroke-width="2" stroke-linecap="round" stroke-linejoin="round" opacity="1" fill="none"></path><path d="M624.3 866.11V885.9" stroke="#333333" stroke-width="2" stroke-linecap="round" stroke-linejoin="round" opacity="1" fill="none"></path><path d="M624.3 893.03V916.02" stroke="#333333" stroke-width="2" stroke-linecap="round" stroke-linejoin="round" opacity="1" fill="none"></path><path d="M680.1 816.33V853.33" stroke="#333333" stroke-width="2" stroke-linecap="round" stroke-linejoin="round" opacity="1" fill="none"></path><path d="M725.21 785.11V816.33" stroke="#333333" stroke-width="2" stroke-linecap="round" stroke-linejoin="round" opacity="1" fill="none"></path><path d="M641.63 856.89C630.69 856.89 636.59 834.03 624.3 834.03 612.01 834.03 617.91 856.89 606.97 856.89H604.26V866.11H644.33V856.89H641.63Z" fill="#78c7e0" stroke="#333333" stroke-width="2" stroke-linecap="round" stroke-linejoin="round" opacity="1"></path><path d="M604.26 856.89H626.88" stroke="#333333" stroke-width="2" stroke-linecap="round" stroke-linejoin="round" opacity="1" fill="none"></path><path d="M632.04 856.89H644.33" stroke="#333333" stroke-width="2" stroke-linecap="round" stroke-linejoin="round" opacity="1" fill="none"></path><path d="M742.54 757.21C731.6 757.21 737.5 734.35 725.21 734.35 712.92 734.35 718.82 757.21 707.88 757.21H705.18V766.43H745.25V757.21H742.54Z" fill="#78c7e0" stroke="#333333" stroke-width="2" stroke-linecap="round" stroke-linejoin="round" opacity="1"></path><path d="M705.18 757.21H727.79" stroke="#333333" stroke-width="2" stroke-linecap="round" stroke-linejoin="round" opacity="1" fill="none"></path><path d="M883.78 743.93C882.42 738.89 880.58 734.35 875.05 734.35 862.76 734.35 868.66 757.21 857.72 757.21H855.01V766.43H895.08V757.21H892.38C887.95 757.21 886.36 753.4 885 748.97" fill="#78c7e0" opacity="1" stroke-width="2" stroke="none"></path><path d="M883.78 743.93C882.42 738.89 880.58 734.35 875.05 734.35 862.76 734.35 868.66 757.21 857.72 757.21H855.01V766.43H895.08V757.21H892.38C887.95 757.21 886.36 753.4 885 748.97" stroke="#333333" stroke-width="2" stroke-linecap="round" stroke-linejoin="round" opacity="1" fill="none"></path><path d="M855.01 757.21H877.63" stroke="#333333" stroke-width="2" stroke-linecap="round" stroke-linejoin="round" opacity="1" fill="none"></path><path d="M877.63 757.21H895.21" stroke="#333333" stroke-width="2" stroke-linecap="round" stroke-linejoin="round" opacity="1" fill="none"></path><path d="M697.43 806.99C686.49 806.99 692.39 784.13 680.1 784.13 667.81 784.13 673.71 806.99 662.77 806.99H660.07V816.21H700.14V806.99H697.43Z" fill="#78c7e0" stroke="#333333" stroke-width="2" stroke-linecap="round" stroke-linejoin="round" opacity="1"></path><path d="M660.07 806.99H673.47" stroke="#333333" stroke-width="2" stroke-linecap="round" stroke-linejoin="round" opacity="1" fill="none"></path><path d="M680.1 806.99H700.14" stroke="#333333" stroke-width="2" stroke-linecap="round" stroke-linejoin="round" opacity="1" fill="none"></path><path d="M800.19 741.6V750.45" stroke="#333333" stroke-width="2" stroke-linecap="round" stroke-linejoin="round" opacity="1" fill="none"></path><path d="M800.19 716.65V734.72" stroke="#333333" stroke-width="2" stroke-linecap="round" stroke-linejoin="round" opacity="1" fill="none"></path><path d="M800.19 756.84V766.43" stroke="#333333" stroke-width="2" stroke-linecap="round" stroke-linejoin="round" opacity="1" fill="none"></path><path d="M658.84 716.65H941.67" stroke="#333333" stroke-width="2" stroke-linecap="round" stroke-linejoin="round" opacity="1" fill="none"></path><path d="M1127.03 895.98H1168.33" stroke="#333333" stroke-width="2" stroke-linecap="round" stroke-linejoin="round" opacity="1" fill="none"></path><path d="M1079.46 886.64V916.02" stroke="#333333" stroke-width="2" stroke-linecap="round" stroke-linejoin="round" opacity="1" fill="none"></path><path d="M976.09 866.11V898.44" stroke="#333333" stroke-width="2" stroke-linecap="round" stroke-linejoin="round" opacity="1" fill="none"></path><path d="M976.09 905.57V916.02" stroke="#333333" stroke-width="2" stroke-linecap="round" stroke-linejoin="round" opacity="1" fill="none"></path><path d="M920.28 826.41V844.97" stroke="#333333" stroke-width="2" stroke-linecap="round" stroke-linejoin="round" opacity="1" fill="none"></path><path d="M920.28 851.98V866.11" stroke="#333333" stroke-width="2" stroke-linecap="round" stroke-linejoin="round" opacity="1" fill="none"></path><path d="M875.17 800.72V816.33" stroke="#333333" stroke-width="2" stroke-linecap="round" stroke-linejoin="round" opacity="1" fill="none"></path><path d="M958.75 856.89C969.69 856.89 963.79 834.03 976.09 834.03 988.38 834.03 982.48 856.89 993.42 856.89H996.12V866.11H956.05V856.89H958.75Z" fill="#78c7e0" stroke="#333333" stroke-width="2" stroke-linecap="round" stroke-linejoin="round" opacity="1"></path><path d="M996.24 856.89H973.63" stroke="#333333" stroke-width="2" stroke-linecap="round" stroke-linejoin="round" opacity="1" fill="none"></path><path d="M902.95 806.99C913.89 806.99 907.99 784.13 920.28 784.13 932.57 784.13 926.67 806.99 937.61 806.99H940.32V816.21H900.25V806.99H902.95Z" fill="#78c7e0" stroke="#333333" stroke-width="2" stroke-linecap="round" stroke-linejoin="round" opacity="1"></path><path d="M940.32 806.99H924.46" stroke="#333333" stroke-width="2" stroke-linecap="round" stroke-linejoin="round" opacity="1" fill="none"></path><path d="M919.3 806.99H900.25" stroke="#333333" stroke-width="2" stroke-linecap="round" stroke-linejoin="round" opacity="1" fill="none"></path><path d="M770.82 854.07H829.69" stroke="#333333" stroke-width="2" stroke-linecap="round" stroke-linejoin="round" opacity="1" fill="none"></path><path d="M770.82 841.28H829.69" stroke="#333333" stroke-width="2" stroke-linecap="round" stroke-linejoin="round" opacity="1" fill="none"></path><path d="M770.82 828.5H810.52" stroke="#333333" stroke-width="2" stroke-linecap="round" stroke-linejoin="round" opacity="1" fill="none"></path><path d="M817.03 828.5H829.69" stroke="#333333" stroke-width="2" stroke-linecap="round" stroke-linejoin="round" opacity="1" fill="none"></path><path d="M783.6 804.16H816.79" stroke="#333333" stroke-width="2" stroke-linecap="round" stroke-linejoin="round" opacity="1" fill="none"></path><path d="M792.33 791.38H816.79" stroke="#333333" stroke-width="2" stroke-linecap="round" stroke-linejoin="round" opacity="1" fill="none"></path><path d="M783.6 778.6H810.52" stroke="#333333" stroke-width="2" stroke-linecap="round" stroke-linejoin="round" opacity="1" fill="none"></path><path d="M842.48 866.11H757.91V915.89H842.48V866.11Z" fill="#78c7e0" stroke="#333333" stroke-width="2" stroke-linecap="round" stroke-linejoin="round" opacity="1"></path><path d="M757.91 903.85H832.4" stroke="#333333" stroke-width="2" stroke-linecap="round" stroke-linejoin="round" opacity="1" fill="none"></path><path d="M757.91 891.07H816.79" stroke="#333333" stroke-width="2" stroke-linecap="round" stroke-linejoin="round" opacity="1" fill="none"></path><path d="M832.4 891.07H842.48" stroke="#333333" stroke-width="2" stroke-linecap="round" stroke-linejoin="round" opacity="1" fill="none"></path><path d="M757.91 878.28H779.05" stroke="#333333" stroke-width="2" stroke-linecap="round" stroke-linejoin="round" opacity="1" fill="none"></path><path d="M785.57 878.28H842.48" stroke="#333333" stroke-width="2" stroke-linecap="round" stroke-linejoin="round" opacity="1" fill="none"></path></g><g><path d="M1145.97 909.37C1145.97 909.37 1145.97 909.29 1145.97 909.37 1145.97 909.29 1146.06 909.29 1146.06 909.29H1178.21C1191.75 909.29 1202.66 920.2 1202.74 933.74V933.82C1202.74 933.82 1202.74 933.82 1202.66 933.82H1170.5C1156.88 933.82 1146.06 922.91 1145.97 909.37Z" fill="#46cdcf" stroke="#333333" stroke-width="2" stroke-linecap="round" stroke-linejoin="round" opacity="1"></path><path d="M1202.74 860.32V1012.16" stroke="#333333" stroke-width="2" stroke-linecap="round" stroke-linejoin="round" opacity="1" fill="none"></path><path d="M1259.51 938.74C1259.51 938.74 1259.51 938.66 1259.51 938.74 1259.51 938.66 1259.43 938.66 1259.43 938.66H1227.27C1213.74 938.66 1202.82 949.57 1202.74 963.11V963.19C1202.74 963.19 1202.74 963.19 1202.82 963.19H1234.98C1248.52 963.19 1259.43 952.28 1259.51 938.74Z" fill="#46cdcf" stroke="#333333" stroke-width="2" stroke-linecap="round" stroke-linejoin="round" opacity="1"></path><path d="M1202.74 878.86C1192.55 878.86 1184.28 870.59 1184.28 860.4 1184.28 850.2 1192.55 841.94 1202.74 841.94 1212.94 841.94 1221.2 850.2 1221.2 860.4 1221.2 870.59 1212.94 878.86 1202.74 878.86Z" fill="#abedd8" stroke="#333333" stroke-width="2" stroke-linecap="round" stroke-linejoin="round" opacity="1"></path></g><g><path d="M214.41 860.49C214.4 860.64 214.4 860.64 214.41 860.49 214.26 860.48 214.26 860.48 214.26 860.48 197.75 823.72 239.23 769.23 306.92 738.62 374.62 708.01 442.98 712.76 459.66 749.39L459.65 749.53C459.65 749.53 459.65 749.53 459.64 749.68L214.41 860.49Z" fill="#abedd8" stroke="#333333" stroke-width="2" stroke-linecap="round" stroke-linejoin="round" opacity="1"></path><path d="M276.41 832.46C259.74 795.69 273.39 753.73 306.92 738.62 340.31 723.51 380.97 740.94 397.64 777.71L276.41 832.46Z" stroke="#333333" stroke-width="2" stroke-linecap="round" stroke-linejoin="round" opacity="1" fill="none"></path><path d="M295.68 713.85L430.93 1012.63" stroke="#333333" stroke-width="2" stroke-linecap="round" stroke-linejoin="round" opacity="1" fill="none"></path></g></svg>