<svg xmlns="http://www.w3.org/2000/svg" height="1200" width="1600" version="1.1" xmlns:xlink="http://www.w3.org/1999/xlink" xmlns:svgjs="http://svgjs.com/svgjs"><rect fill="#effaff" width="1600" height="1200"></rect><g><path d="M209.9 1014.04H487.35" stroke="#333333" stroke-width="2" stroke-linecap="round" stroke-linejoin="round" opacity="1" fill="none"></path><path d="M503.38 1014.04H687.88" stroke="#333333" stroke-width="2" stroke-linecap="round" stroke-linejoin="round" opacity="1" fill="none"></path><path d="M1121.9 1041.9H1265.78C1277.78 1041.9 1287.42 1035.71 1287.42 1028 1287.42 1020.29 1277.78 1014.1 1265.78 1014.1" stroke="#333333" stroke-width="2" stroke-linecap="round" stroke-linejoin="round" opacity="1" fill="none"></path><path d="M944.77 1061.3H1053.64C1070.27 1061.3 1083.84 1052.64 1083.84 1041.9" stroke="#333333" stroke-width="2" stroke-linecap="round" stroke-linejoin="round" opacity="1" fill="none"></path><path d="M864.91 1061.3H920.87" stroke="#333333" stroke-width="2" stroke-linecap="round" stroke-linejoin="round" opacity="1" fill="none"></path><path d="M1106.56 1041.9H1012.73" stroke="#333333" stroke-width="2" stroke-linecap="round" stroke-linejoin="round" opacity="1" fill="none"></path><path d="M790.26 1041.9H585.6" stroke="#333333" stroke-width="2" stroke-linecap="round" stroke-linejoin="round" opacity="1" fill="none"></path><path d="M567.7 1041.9H542.13" stroke="#333333" stroke-width="2" stroke-linecap="round" stroke-linejoin="round" opacity="1" fill="none"></path><path d="M386.34 1041.9H295.86" stroke="#333333" stroke-width="2" stroke-linecap="round" stroke-linejoin="round" opacity="1" fill="none"></path><path d="M403.06 1041.9H507.7C516.26 1041.9 523.05 1046.32 523.05 1051.76 523.05 1057.25 516.16 1061.61 507.7 1061.61H454.89" stroke="#333333" stroke-width="2" stroke-linecap="round" stroke-linejoin="round" opacity="1" fill="none"></path><path d="M494.13 1081.39H441.32C432.76 1081.39 425.98 1076.96 425.98 1071.53 425.98 1066.03 432.86 1061.68 441.32 1061.68" stroke="#333333" stroke-width="2" stroke-linecap="round" stroke-linejoin="round" opacity="1" fill="none"></path><path d="M509.18 1081.39H567.7" stroke="#333333" stroke-width="2" stroke-linecap="round" stroke-linejoin="round" opacity="1" fill="none"></path><path d="M585.6 1081.39H642.64" stroke="#333333" stroke-width="2" stroke-linecap="round" stroke-linejoin="round" opacity="1" fill="none"></path><path d="M704.21 1014.04H1390.1" stroke="#333333" stroke-width="2" stroke-linecap="round" stroke-linejoin="round" opacity="1" fill="none"></path></g><g><path d="M1408.22 623.14C1403.22 595.71 1392.72 569.4 1379.56 544.93 1373.96 534.53 1367.43 523.82 1365.39 512.09 1361.82 492.41 1370.59 473.24 1376.51 454.17 1435.85 261.65 1226.2 151.11 1066.5 143.97 964.73 139.38 864.39 170.69 782 230.54 623.22 178.54 398.06 193.83 326.68 372.08 320.67 386.97 315.97 402.78 306.19 415.32 294.66 430.41 277.33 439.59 262.13 450.81 223.89 479.06 197.58 522.7 190.24 569.51 171.89 688.2 281 817 398.17 828.42 437.02 832.19 476.18 826.79 513.91 817.51 522.68 815.47 606.09 782.22 605.28 781.31 744.67 880.43 928.64 891.85 1093.73 888.07 1140.54 887.05 1189.28 883.48 1233.13 866.35 1321.54 831.89 1409.95 766.62 1411.79 662.81 1411.79 649.86 1410.77 636.5 1408.22 623.14Z" fill="#deeff7" opacity="1" stroke-width="2" stroke="none"></path></g><g><path d="M391.74 484.49C399.56 484.49 405.9 478.15 405.9 470.33 405.9 462.51 399.56 456.17 391.74 456.17 383.92 456.17 377.58 462.51 377.58 470.33 377.58 478.15 383.92 484.49 391.74 484.49Z" fill="#ffffff" stroke="#333333" stroke-width="2" stroke-linecap="round" stroke-linejoin="round" opacity="1"></path><path d="M1048.76 353.22C1056.58 353.22 1062.91 346.89 1062.91 339.07 1062.91 331.25 1056.58 324.91 1048.76 324.91 1040.93 324.91 1034.6 331.25 1034.6 339.07 1034.6 346.89 1040.93 353.22 1048.76 353.22Z" fill="#ffffff" stroke="#333333" stroke-width="2" stroke-linecap="round" stroke-linejoin="round" opacity="1"></path><path d="M455.65 405.32C459.38 405.32 462.39 402.31 462.39 398.58 462.39 394.86 459.38 391.85 455.65 391.85 451.93 391.85 448.92 394.86 448.92 398.58 448.92 402.31 451.93 405.32 455.65 405.32Z" fill="#ffffff" stroke="#333333" stroke-width="2" stroke-linecap="round" stroke-linejoin="round" opacity="1"></path><path d="M711.45 265.8C715.18 265.8 718.19 262.79 718.19 259.07 718.19 255.34 715.18 252.33 711.45 252.33 707.73 252.33 704.72 255.34 704.72 259.07 704.72 262.79 707.73 265.8 711.45 265.8Z" fill="#ffffff" stroke="#333333" stroke-width="2" stroke-linecap="round" stroke-linejoin="round" opacity="1"></path><path d="M831.45 384.01C835.17 384.01 838.18 381 838.18 377.28 838.18 373.55 835.17 370.54 831.45 370.54 827.73 370.54 824.71 373.55 824.71 377.28 824.71 381 827.73 384.01 831.45 384.01Z" fill="#ffffff" stroke="#333333" stroke-width="2" stroke-linecap="round" stroke-linejoin="round" opacity="1"></path><path d="M973.84 437.62C977.57 437.62 980.58 434.61 980.58 430.88 980.58 427.16 977.57 424.15 973.84 424.15 970.12 424.15 967.11 427.16 967.11 430.88 967.11 434.61 970.12 437.62 973.84 437.62Z" fill="#ffffff" stroke="#333333" stroke-width="2" stroke-linecap="round" stroke-linejoin="round" opacity="1"></path><path d="M1144.83 601.05C1148.56 601.05 1151.57 598.04 1151.57 594.31 1151.57 590.59 1148.56 587.58 1144.83 587.58 1141.11 587.58 1138.1 590.59 1138.1 594.31 1138.1 598.04 1141.11 601.05 1144.83 601.05Z" fill="#ffffff" stroke="#333333" stroke-width="2" stroke-linecap="round" stroke-linejoin="round" opacity="1"></path><path d="M1246.41 434.04C1250.13 434.04 1253.15 431.03 1253.15 427.31 1253.15 423.58 1250.13 420.57 1246.41 420.57 1242.69 420.57 1239.67 423.58 1239.67 427.31 1239.67 431.03 1242.69 434.04 1246.41 434.04Z" fill="#ffffff" stroke="#333333" stroke-width="2" stroke-linecap="round" stroke-linejoin="round" opacity="1"></path></g><g><path d="M821.61 518H778.39L762.95 720.17H837.05L821.61 518Z" fill="#3d84a8" stroke="#333333" stroke-width="2" stroke-linecap="round" stroke-linejoin="round" opacity="1"></path><path d="M718.43 858.77L753.85 731.23H800L769.47 858.77H718.43Z" fill="#3d84a8" stroke="#333333" stroke-width="2" stroke-linecap="round" stroke-linejoin="round" opacity="1"></path><path d="M857.81 773.17L846.15 731.23H800L830.53 858.77H881.57L861.84 787.67" fill="#3d84a8" opacity="1" stroke-width="2" stroke="none"></path><path d="M857.81 773.17L846.15 731.23H800L830.53 858.77H881.57L861.84 787.67" stroke="#333333" stroke-width="2" stroke-linecap="round" stroke-linejoin="round" opacity="1" fill="none"></path><path d="M892.12 854.06H707.88V881.85H892.12V854.06Z" fill="#3d84a8" stroke="#333333" stroke-width="2" stroke-linecap="round" stroke-linejoin="round" opacity="1"></path><path d="M854.55 716.91H745.45V735.95H854.55V716.91Z" fill="#3d84a8" stroke="#333333" stroke-width="2" stroke-linecap="round" stroke-linejoin="round" opacity="1"></path><path d="M687.38 854.06H912.62" stroke="#333333" stroke-width="2" stroke-linecap="round" stroke-linejoin="round" opacity="1" fill="none"></path><path d="M800 716.91V626.16" stroke="#333333" stroke-width="2" stroke-linecap="round" stroke-linejoin="round" opacity="1" fill="none"></path><path d="M800 616.55V605.83" stroke="#333333" stroke-width="2" stroke-linecap="round" stroke-linejoin="round" opacity="1" fill="none"></path><path d="M825.56 478.98H774.53V521.35H825.56V478.98Z" fill="#3d84a8" stroke="#333333" stroke-width="2" stroke-linecap="round" stroke-linejoin="round" opacity="1"></path><path d="M774.53 468.85H825.47" stroke="#333333" stroke-width="2" stroke-linecap="round" stroke-linejoin="round" opacity="1" fill="none"></path><path d="M800 468.85V433.52" stroke="#333333" stroke-width="2" stroke-linecap="round" stroke-linejoin="round" opacity="1" fill="none"></path><path d="M892.29 873.1H707.71L641.32 1013.42H740.22V954.41C740.22 921.39 766.98 894.63 800 894.63 833.02 894.63 859.78 921.39 859.78 954.41V1013.42H958.68L892.29 873.1Z" fill="#3d84a8" stroke="#333333" stroke-width="2" stroke-linecap="round" stroke-linejoin="round" opacity="1"></path></g><g><path d="M1309.19 923.71V812.21" stroke="#333333" stroke-width="2" stroke-linecap="round" stroke-linejoin="round" opacity="1" fill="none"></path><path d="M1309.19 1011.58V946.09" stroke="#333333" stroke-width="2" stroke-linecap="round" stroke-linejoin="round" opacity="1" fill="none"></path><path d="M1336.34 785.06L1309.19 812.21 1282.25 785.06" stroke="#333333" stroke-width="2" stroke-linecap="round" stroke-linejoin="round" opacity="1" fill="none"></path><path d="M1309.19 902.36L1282.25 875.21" stroke="#333333" stroke-width="2" stroke-linecap="round" stroke-linejoin="round" opacity="1" fill="none"></path><path d="M1174.48 907.96L1147.33 935.11V1011.58" stroke="#333333" stroke-width="2" stroke-linecap="round" stroke-linejoin="round" opacity="1" fill="none"></path><path d="M1225.26 1011.58V688.69" stroke="#333333" stroke-width="2" stroke-linecap="round" stroke-linejoin="round" opacity="1" fill="none"></path><path d="M1225.26 741.53C1196.08 741.53 1172.41 717.87 1172.41 688.69 1172.41 659.5 1196.08 635.84 1225.26 635.84 1254.44 635.84 1278.11 659.5 1278.11 688.69 1278.11 717.87 1254.44 741.53 1225.26 741.53Z" fill="#abedd8" opacity="1" stroke-width="2" stroke="none"></path><path d="M1176.78 710.12C1164.97 683.42 1177.05 652.21 1203.73 640.4 1230.42 628.58 1261.63 640.64 1273.44 667.34 1285.26 694.03 1273.2 725.24 1246.5 737.06 1219.81 748.87 1188.6 736.81 1176.78 710.12Z" stroke="#333333" stroke-width="2" stroke-linecap="round" stroke-linejoin="round" opacity="1" fill="none"></path></g><g><path d="M408.02 652.33C436.02 652.33 458.71 675.01 458.71 703.02V790.4C458.71 818.41 436.02 841.09 408.02 841.09 380.01 841.09 357.33 818.41 357.33 790.4V703.3C357.33 675.29 380.01 652.33 408.02 652.33Z" fill="#abedd8" stroke="#333333" stroke-width="2" stroke-linecap="round" stroke-linejoin="round" opacity="1"></path><path d="M408.02 764.07V740.27" stroke="#333333" stroke-width="2" stroke-linecap="round" stroke-linejoin="round" opacity="1" fill="none"></path><path d="M408.02 1011.93V782.84" stroke="#333333" stroke-width="2" stroke-linecap="round" stroke-linejoin="round" opacity="1" fill="none"></path><path d="M298.79 1011.93V639.16" stroke="#333333" stroke-width="2" stroke-linecap="round" stroke-linejoin="round" opacity="1" fill="none"></path><path d="M335.48 602.47L298.79 639.16 262.1 602.47" stroke="#333333" stroke-width="2" stroke-linecap="round" stroke-linejoin="round" opacity="1" fill="none"></path><path d="M298.79 761.27L262.1 724.58" stroke="#333333" stroke-width="2" stroke-linecap="round" stroke-linejoin="round" opacity="1" fill="none"></path><path d="M207.21 1011.93V853.13" stroke="#333333" stroke-width="2" stroke-linecap="round" stroke-linejoin="round" opacity="1" fill="none"></path><path d="M243.9 816.44L207.21 853.13 178.36 824.29" stroke="#333333" stroke-width="2" stroke-linecap="round" stroke-linejoin="round" opacity="1" fill="none"></path><path d="M163.8 829.61C176.18 829.61 186.21 819.58 186.21 807.2 186.21 794.82 176.18 784.8 163.8 784.8 151.42 784.8 141.4 794.82 141.4 807.2 141.4 819.58 151.42 829.61 163.8 829.61Z" fill="#abedd8" stroke="#333333" stroke-width="2" stroke-linecap="round" stroke-linejoin="round" opacity="1"></path></g></svg>